<?xml version="1.0" encoding="UTF-8" standalone="no"?>
<!-- Created with Inkscape (http://www.inkscape.org/) -->

<svg
   xmlns:dc="http://purl.org/dc/elements/1.1/"
   xmlns:cc="http://creativecommons.org/ns#"
   xmlns:rdf="http://www.w3.org/1999/02/22-rdf-syntax-ns#"
   xmlns:svg="http://www.w3.org/2000/svg"
   xmlns="http://www.w3.org/2000/svg"
   xmlns:sodipodi="http://sodipodi.sourceforge.net/DTD/sodipodi-0.dtd"
   xmlns:inkscape="http://www.inkscape.org/namespaces/inkscape"
   width="210mm"
   height="297mm"
   viewBox="0 0 744.09448819 1052.3622047"
   id="svg2"
   version="1.1"
   inkscape:version="0.91 r13725"
   sodipodi:docname="hand-touch.svg">
  <defs
     id="defs4" />
  <sodipodi:namedview
     id="base"
     pagecolor="#ffffff"
     bordercolor="#666666"
     borderopacity="1.0"
     inkscape:pageopacity="0.0"
     inkscape:pageshadow="2"
     inkscape:zoom="0.49497475"
     inkscape:cx="19.75796"
     inkscape:cy="597.52629"
     inkscape:document-units="px"
     inkscape:current-layer="layer1"
     showgrid="false"
     inkscape:window-width="1627"
     inkscape:window-height="1026"
     inkscape:window-x="1253"
     inkscape:window-y="885"
     inkscape:window-maximized="1" />
  <metadata
     id="metadata7">
    <rdf:RDF>
      <cc:Work
         rdf:about="">
        <dc:format>image/svg+xml</dc:format>
        <dc:type
           rdf:resource="http://purl.org/dc/dcmitype/StillImage" />
        <dc:title></dc:title>
      </cc:Work>
    </rdf:RDF>
  </metadata>
  <g
     inkscape:label="Layer 1"
     inkscape:groupmode="layer"
     id="layer1">
    <g
       id="g3466"
       transform="matrix(1.6254644,0,0,1.6254644,1054.0731,-99.121384)">
      <path
         style="fill:#585858"
         d="m -398.17432,703.76922 c 1.54688,-0.29795 4.07813,-0.29795 5.625,0 1.54688,0.29794 0.28125,0.54171 -2.8125,0.54171 -3.09375,0 -4.35937,-0.24377 -2.8125,-0.54171 z m 28.125,0.0205 c 1.20313,-0.3144 3.17188,-0.3144 4.375,0 1.20313,0.31441 0.21875,0.57166 -2.1875,0.57166 -2.40625,0 -3.39062,-0.25725 -2.1875,-0.57166 z m -41.875,-1.21619 c 0.85938,-0.34676 2.26563,-0.34676 3.125,0 0.85938,0.34676 0.15625,0.63049 -1.5625,0.63049 -1.71875,0 -2.42187,-0.28373 -1.5625,-0.63049 z m 55.07813,-0.026 c 0.90233,-0.36109 1.98047,-0.31669 2.39583,0.0986 0.41537,0.41536 -0.32292,0.7108 -1.64062,0.65652 -1.45619,-0.06 -1.75238,-0.35617 -0.75521,-0.7552 z m -63.75,-1.25 c 0.90233,-0.36109 1.98046,-0.31669 2.39583,0.0986 0.41537,0.41536 -0.32292,0.7108 -1.64062,0.65652 -1.45619,-0.06 -1.75238,-0.35617 -0.75521,-0.7552 z m 70,0 c 0.90233,-0.36109 1.98047,-0.31669 2.39583,0.0986 0.41537,0.41536 -0.32292,0.7108 -1.64062,0.65652 -1.45619,-0.06 -1.75238,-0.35617 -0.75521,-0.7552 z m -77.5,-1.25 c 0.90233,-0.36109 1.98046,-0.31669 2.39583,0.0986 0.41537,0.41536 -0.32292,0.7108 -1.64062,0.65652 -1.45619,-0.06 -1.75238,-0.35617 -0.75521,-0.7552 z m 128.98437,-20.8681 c 0,-0.25956 0.98438,-1.24394 2.1875,-2.1875 1.98258,-1.55484 2.02679,-1.51062 0.47195,0.47195 -1.63296,2.08219 -2.65945,2.74435 -2.65945,1.71555 z m 8.75,-7.65305 c 1.61469,-1.71875 3.21704,-3.125 3.56079,-3.125 0.34375,0 -0.6961,1.40625 -2.31079,3.125 -1.61469,1.71875 -3.21704,3.125 -3.56079,3.125 -0.34375,0 0.6961,-1.40625 2.31079,-3.125 z m -208.90945,-2.8125 c -1.55484,-1.98257 -1.51062,-2.02679 0.47195,-0.47195 1.20313,0.94356 2.1875,1.92794 2.1875,2.1875 0,1.0288 -1.02649,0.36664 -2.65945,-1.71555 z m -11.79419,-10.625 -3.67136,-4.0625 4.0625,3.67136 c 3.78683,3.42223 4.63706,4.45364 3.67136,4.45364 -0.21512,0 -2.04325,-1.82812 -4.0625,-4.0625 z m 233.82864,0.3125 c 1.24436,-1.375 2.54373,-2.5 2.88748,-2.5 0.34375,0 -0.39312,1.125 -1.63748,2.5 -1.24436,1.375 -2.54372,2.5 -2.88747,2.5 -0.34375,0 0.39311,-1.125 1.63747,-2.5 z m 4.375,-5.47195 c 0,-0.25956 0.98438,-1.24394 2.1875,-2.1875 1.98258,-1.55484 2.02679,-1.51062 0.47195,0.47195 -1.63296,2.08219 -2.65945,2.74435 -2.65945,1.71555 z m -247.65945,-5.46555 c -1.55484,-1.98257 -1.51062,-2.02679 0.47195,-0.47195 1.20313,0.94356 2.1875,1.92794 2.1875,2.1875 0,1.0288 -1.02649,0.36664 -2.65945,-1.71555 z m 285.25814,-94.79166 c 0.06,-1.45619 0.35617,-1.75238 0.7552,-0.75521 0.36109,0.90233 0.31669,1.98047 -0.0986,2.39583 -0.41536,0.41537 -0.7108,-0.32292 -0.65652,-1.64062 z m 1.25,-7.5 c 0.06,-1.45619 0.35617,-1.75238 0.7552,-0.75521 0.36109,0.90233 0.31669,1.98047 -0.0986,2.39583 -0.41536,0.41537 -0.7108,-0.32292 -0.65652,-1.64062 z m 1.34867,-10.52084 c 0,-1.71875 0.28373,-2.42187 0.63049,-1.5625 0.34676,0.85938 0.34676,2.26563 0,3.125 -0.34676,0.85938 -0.63049,0.15625 -0.63049,-1.5625 z m -259.18608,-2.1875 c -0.21245,-0.51562 -0.102,-78 0.2454,-172.1875 l 0.63167,-171.25 0.30583,172.1875 c 0.1682,94.70313 0.0577,172.1875 -0.2454,172.1875 -0.30318,0 -0.72505,-0.42187 -0.9375,-0.9375 z m 260.52872,-10.3125 c 0,-2.40625 0.25725,-3.39062 0.57166,-2.1875 0.3144,1.20313 0.3144,3.17188 0,4.375 -0.31441,1.20313 -0.57166,0.21875 -0.57166,-2.1875 z m 1.4372,-31.875 c 0.003,-8.25 0.20478,-11.46234 0.44956,-7.13851 0.24479,4.32381 0.24278,11.07381 -0.005,15 -0.24726,3.92617 -0.44753,0.38851 -0.44507,-7.86149 z m -358.91197,-31.25 c 0.0139,-2.75 0.26986,-3.72781 0.56885,-2.17292 0.29898,1.55488 0.28763,3.80488 -0.0252,5 -0.31287,1.19511 -0.5575,-0.0771 -0.54363,-2.82708 z m 357.54228,-3.75 c 0.01,-3.4375 0.25215,-4.69539 0.53947,-2.79531 0.28732,1.90007 0.27963,4.71257 -0.017,6.25 -0.2967,1.53742 -0.53178,-0.0172 -0.5224,-3.45469 z m -299.81115,-19.6875 -3.67136,-4.0625 4.0625,3.67136 c 3.78683,3.42223 4.63706,4.45364 3.67136,4.45364 -0.21512,0 -2.04325,-1.82812 -4.0625,-4.0625 z m 298.49364,0.3125 c 0,-2.40625 0.25725,-3.39062 0.57166,-2.1875 0.3144,1.20313 0.3144,3.17188 0,4.375 -0.31441,1.20313 -0.57166,0.21875 -0.57166,-2.1875 z m -326.8525,-9.57785 c 0.85938,-0.34676 2.26563,-0.34676 3.125,0 0.85938,0.34676 0.15625,0.63049 -1.5625,0.63049 -1.71875,0 -2.42187,-0.28373 -1.5625,-0.63049 z m 8.75,0 c 0.85938,-0.34676 2.26563,-0.34676 3.125,0 0.85938,0.34676 0.15625,0.63049 -1.5625,0.63049 -1.71875,0 -2.42187,-0.28373 -1.5625,-0.63049 z m 316.8525,-6.67215 c 0,-2.40625 0.25725,-3.39062 0.57166,-2.1875 0.3144,1.20313 0.3144,3.17188 0,4.375 -0.31441,1.20313 -0.57166,0.21875 -0.57166,-2.1875 z m -1.44131,-14.47916 c 0.06,-1.45619 0.35617,-1.75238 0.7552,-0.75521 0.36109,0.90233 0.31669,1.98047 -0.0986,2.39583 -0.41536,0.41537 -0.7108,-0.32292 -0.65652,-1.64062 z m -53.84869,-15.99279 c 0,-0.25956 0.98438,-1.24394 2.1875,-2.1875 1.98258,-1.55484 2.02679,-1.51062 0.47195,0.47195 -1.63296,2.08219 -2.65945,2.74435 -2.65945,1.71555 z m -8.55264,-12.02805 c 0,-1.71875 0.28373,-2.42187 0.63049,-1.5625 0.34676,0.85938 0.34676,2.26563 0,3.125 -0.34676,0.85938 -0.63049,0.15625 -0.63049,-1.5625 z m 30.11514,1.60469 c 1.89063,-0.28641 4.98438,-0.28641 6.875,0 1.89063,0.2864 0.34375,0.52074 -3.4375,0.52074 -3.78125,0 -5.32812,-0.23434 -3.4375,-0.52074 z m -93.96381,-3.58385 c 0.06,-1.45619 0.35617,-1.75238 0.7552,-0.75521 0.36109,0.90233 0.31669,1.98046 -0.0986,2.39583 -0.41536,0.41537 -0.7108,-0.32292 -0.65652,-1.64062 z m 7.40131,-14.74279 c 0,-0.25956 0.98438,-1.24394 2.1875,-2.1875 1.98258,-1.55484 2.02679,-1.51062 0.47195,0.47195 -1.63296,2.08219 -2.65945,2.74435 -2.65945,1.71555 z m 38.75,-7.02805 c -1.12661,-0.72807 -1.28079,-1.21936 -0.38627,-1.23086 0.8188,-0.01 1.83637,0.54336 2.26127,1.23086 0.95913,1.55191 0.5264,1.55191 -1.875,0 z m -111.05264,-3.75 c 0,-1.71875 0.28373,-2.42187 0.63049,-1.5625 0.34676,0.85938 0.34676,2.26563 0,3.125 -0.34676,0.85938 -0.63049,0.15625 -0.63049,-1.5625 z m 63.65133,0.52084 c 0.06,-1.45619 0.35617,-1.75238 0.7552,-0.75521 0.36109,0.90233 0.31669,1.98046 -0.0986,2.39583 -0.41536,0.41537 -0.7108,-0.32292 -0.65652,-1.64062 z m 29.6112,-0.17675 c 2.24669,-0.2782 5.62169,-0.27246 7.5,0.0127 1.87831,0.28522 0.0401,0.51284 -4.08489,0.50582 -4.125,-0.008 -5.6618,-0.24037 -3.41511,-0.51857 z m -38.61934,-16.28159 c -1.55484,-1.98257 -1.51063,-2.02679 0.47195,-0.47195 2.08219,1.63296 2.74435,2.65945 1.71555,2.65945 -0.25956,0 -1.24394,-0.98437 -2.1875,-2.1875 z m -26.40305,-8.71675 c 2.23438,-0.27727 5.89063,-0.27727 8.125,0 2.23438,0.27729 0.40625,0.50416 -4.0625,0.50416 -4.46875,0 -6.29687,-0.22687 -4.0625,-0.50416 z m -139.84695,-38.78325 c -1.55484,-1.98257 -1.51062,-2.02679 0.47195,-0.47195 1.20313,0.94356 2.1875,1.92794 2.1875,2.1875 0,1.0288 -1.02649,0.36664 -2.65945,-1.71555 z m 157.65945,0.46555 c 0,-0.25956 0.98438,-1.24394 2.1875,-2.1875 1.98258,-1.55484 2.02679,-1.51062 0.47195,0.47195 -1.63296,2.08219 -2.65945,2.74435 -2.65945,1.71555 z m 16.875,-17.02805 c 1.24436,-1.375 2.54373,-2.5 2.88748,-2.5 0.34375,0 -0.39312,1.125 -1.63748,2.5 -1.24436,1.375 -2.54372,2.5 -2.88747,2.5 -0.34375,0 0.39311,-1.125 1.63747,-2.5 z m -192.61876,-1.5625 -2.38124,-2.8125 2.8125,2.38124 c 2.64305,2.23777 3.38155,3.24376 2.38124,3.24376 -0.2372,0 -1.50283,-1.26562 -2.8125,-2.8125 z m 22.57964,-5 -7.46088,-7.8125 7.8125,7.46088 c 4.29688,4.10347 7.8125,7.6191 7.8125,7.8125 0,0.92362 -1.23361,-0.20373 -8.16412,-7.46088 z m 148.78912,0.3125 c 3.38581,-3.4375 6.43728,-6.25 6.78103,-6.25 0.34375,0 -2.14522,2.8125 -5.53103,6.25 -3.38581,3.4375 -6.43727,6.25 -6.78102,6.25 -0.34375,0 2.14521,-2.8125 5.53102,-6.25 z m 8.125,-9.22195 c 0,-0.25956 0.98438,-1.24394 2.1875,-2.1875 1.98258,-1.55484 2.02679,-1.51062 0.47195,0.47195 -1.63296,2.08219 -2.65945,2.74435 -2.65945,1.71555 z m -33.75,-1.25 c 0,-0.25956 0.98438,-1.24394 2.1875,-2.1875 1.98258,-1.55484 2.02679,-1.51062 0.47195,0.47195 -1.63296,2.08219 -2.65945,2.74435 -2.65945,1.71555 z m 12.5,-12.5 c 0,-0.25956 0.98438,-1.24394 2.1875,-2.1875 1.98258,-1.55484 2.02679,-1.51062 0.47195,0.47195 -1.63296,2.08219 -2.65945,2.74435 -2.65945,1.71555 z m -183.65131,-26.50721 c 0.06,-1.45619 0.35617,-1.75238 0.7552,-0.75521 0.36109,0.90233 0.31669,1.98046 -0.0986,2.39583 -0.41537,0.41537 -0.7108,-0.32292 -0.65652,-1.64062 z m -1.15133,-6.77084 c 0,-1.71875 0.28373,-2.42187 0.63049,-1.5625 0.34676,0.85938 0.34676,2.26563 0,3.125 -0.34676,0.85938 -0.63049,0.15625 -0.63049,-1.5625 z m 19.90133,-0.72916 c 0.06,-1.45619 0.35617,-1.75238 0.7552,-0.75521 0.36109,0.90233 0.31669,1.98046 -0.0986,2.39583 -0.41537,0.41537 -0.7108,-0.32292 -0.65652,-1.64062 z m 227.645,-1.14584 c 0.0255,-2.0625 0.30562,-2.75492 0.62255,-1.53871 0.31692,1.21621 0.29609,2.90371 -0.0464,3.75 -0.34241,0.84629 -0.60171,-0.14879 -0.57623,-2.21129 z m -20.145,-0.10412 c 0.06,-1.45619 0.35617,-1.75238 0.7552,-0.75522 0.36109,0.90234 0.31669,1.98047 -0.0986,2.39584 -0.41536,0.41536 -0.7108,-0.32292 -0.65652,-1.64062 z m -25,-2.5 c 0.06,-1.45619 0.35617,-1.75238 0.7552,-0.75522 0.36109,0.90234 0.31669,1.98047 -0.0986,2.39584 -0.41536,0.41536 -0.7108,-0.32292 -0.65652,-1.64062 z m -20,-1.25 c 0.06,-1.45619 0.35617,-1.75238 0.7552,-0.75522 0.36109,0.90234 0.31669,1.98047 -0.0986,2.39584 -0.41536,0.41536 -0.7108,-0.32292 -0.65652,-1.64062 z m -163.41193,-11.77088 c 0,-5.84375 0.21533,-8.23437 0.4785,-5.3125 0.26316,2.92188 0.26316,7.70313 0,10.625 -0.26317,2.92188 -0.4785,0.53125 -0.4785,-5.3125 z m -20.02658,-0.625 c 0.005,-4.8125 0.23147,-6.62808 0.50207,-4.03462 0.27059,2.59346 0.26605,6.53096 -0.01,8.75 -0.27614,2.21905 -0.49754,0.0971 -0.49199,-4.71538 z m 64.98991,0.625 c 0,-4.46875 0.22687,-6.29687 0.50416,-4.0625 0.27728,2.23438 0.27728,5.89063 0,8.125 -0.27729,2.23438 -0.50416,0.40625 -0.50416,-4.0625 z m 165,0 c 0,-4.46875 0.22687,-6.29687 0.50416,-4.0625 0.27728,2.23438 0.27728,5.89063 0,8.125 -0.27729,2.23438 -0.50416,0.40625 -0.50416,-4.0625 z m -185.02552,0 c 0,-3.78125 0.23434,-5.32812 0.52074,-3.4375 0.28642,1.89063 0.28642,4.98438 0,6.875 -0.2864,1.89063 -0.52074,0.34375 -0.52074,-3.4375 z m 140.00001,0 c 0,-3.78125 0.23433,-5.32812 0.52073,-3.4375 0.28642,1.89063 0.28642,4.98438 0,6.875 -0.2864,1.89063 -0.52073,0.34375 -0.52073,-3.4375 z m -29.02589,3.02084 c 0.06,-1.45619 0.35617,-1.75238 0.7552,-0.75521 0.36109,0.90233 0.31669,1.98046 -0.0986,2.39583 -0.41537,0.41537 -0.7108,-0.32292 -0.65652,-1.64062 z m 48.895,-2.39584 c 0.0255,-2.0625 0.30562,-2.75492 0.62255,-1.53871 0.31692,1.21621 0.29609,2.90371 -0.0464,3.75 -0.34241,0.84629 -0.60171,-0.14879 -0.57623,-2.21129 z m 45.07154,-1.25 c 0.0139,-2.75 0.26986,-3.72781 0.56885,-2.17292 0.29898,1.55489 0.28763,3.80488 -0.0253,5 -0.31287,1.19511 -0.5575,-0.0771 -0.54363,-2.82708 z m -66.46654,-11.35416 c 0.06,-1.45618 0.35617,-1.75238 0.7552,-0.75521 0.36109,0.90234 0.31669,1.98047 -0.0986,2.39583 -0.41536,0.41536 -0.7108,-0.32292 -0.65652,-1.64062 z m 20,0 c 0.06,-1.45618 0.35617,-1.75238 0.7552,-0.75521 0.36109,0.90234 0.31669,1.98047 -0.0986,2.39583 -0.41536,0.41536 -0.7108,-0.32292 -0.65652,-1.64062 z m -157.40133,-1.77084 c 0,-1.71875 0.28373,-2.42187 0.63049,-1.5625 0.34676,0.85938 0.34676,2.26563 0,3.125 -0.34676,0.85938 -0.63049,0.15625 -0.63049,-1.5625 z m -25,-2.5 c 0,-1.71875 0.28373,-2.42187 0.63049,-1.5625 0.34676,0.85938 0.34676,2.26563 0,3.125 -0.34676,0.85938 -0.63049,0.15625 -0.63049,-1.5625 z m 78.55264,2.02806 c 0,-0.25957 0.98438,-1.24395 2.1875,-2.1875 1.98258,-1.55484 2.02679,-1.51063 0.47195,0.47194 -1.63296,2.08219 -2.65945,2.74435 -2.65945,1.71556 z m 46.75624,-2.34056 -2.38124,-2.8125 2.8125,2.38124 c 2.64305,2.23777 3.38155,3.24376 2.38124,3.24376 -0.2372,0 -1.50283,-1.26562 -2.8125,-2.8125 z m 82.09245,0.83334 c 0.06,-1.45618 0.35617,-1.75238 0.7552,-0.75521 0.36108,0.90234 0.31668,1.98047 -0.0986,2.39583 -0.41536,0.41536 -0.7108,-0.32292 -0.65652,-1.64062 z m 20.09867,-0.52084 c 0,-1.71875 0.28373,-2.42187 0.63049,-1.5625 0.34676,0.85938 0.34676,2.26563 0,3.125 -0.34676,0.85938 -0.63049,0.15625 -0.63049,-1.5625 z m -247.5,-1.25 c 0,-1.71875 0.28373,-2.42187 0.63049,-1.5625 0.34676,0.85938 0.34676,2.26563 0,3.125 -0.34676,0.85938 -0.63049,0.15625 -0.63049,-1.5625 z m 1.15133,-6.97916 c 0.06,-1.45618 0.35617,-1.75238 0.7552,-0.75521 0.36109,0.90234 0.31669,1.98047 -0.0986,2.39583 -0.41537,0.41536 -0.7108,-0.32292 -0.65652,-1.64062 z m 114.66694,-0.12473 c 0.90233,-0.36109 1.98046,-0.31668 2.39583,0.0987 0.41537,0.41536 -0.32292,0.7108 -1.64062,0.65652 -1.45619,-0.06 -1.75238,-0.35617 -0.75521,-0.75521 z m 13.75,0 c 0.90233,-0.36109 1.98046,-0.31668 2.39583,0.0987 0.41537,0.41536 -0.32292,0.7108 -1.64062,0.65652 -1.45619,-0.06 -1.75238,-0.35617 -0.75521,-0.75521 z m 39.49061,-14.45861 -2.38124,-2.8125 2.8125,2.38124 c 1.54688,1.30968 2.8125,2.5753 2.8125,2.8125 0,1.00031 -1.00599,0.26182 -3.24376,-2.38124 z m -6.91569,-6.875 c -1.55484,-1.98257 -1.51062,-2.02678 0.47195,-0.47194 1.20313,0.94355 2.1875,1.92793 2.1875,2.1875 0,1.02879 -1.02649,0.36663 -2.65945,-1.71556 z m -77.34055,0.46556 c 0,-0.25957 0.98438,-1.24395 2.1875,-2.1875 1.98258,-1.55484 2.02679,-1.51063 0.47195,0.47194 -1.63296,2.08219 -2.65945,2.74435 -2.65945,1.71556 z m -18.125,-10.77806 c 1.24436,-1.375 2.54373,-2.5 2.88748,-2.5 0.34375,0 -0.39312,1.125 -1.63748,2.5 -1.24436,1.375 -2.54372,2.5 -2.88747,2.5 -0.34375,0 0.39311,-1.125 1.63747,-2.5 z m 41.64063,-2.10389 c 0.90233,-0.36109 1.98046,-0.31668 2.39583,0.0987 0.41537,0.41536 -0.32292,0.7108 -1.64062,0.65652 -1.45619,-0.06 -1.75238,-0.35617 -0.75521,-0.75521 z m 6.25,-1.25 c 0.90233,-0.36109 1.98046,-0.31668 2.39583,0.0987 0.41537,0.41536 -0.32292,0.7108 -1.64062,0.65652 -1.45619,-0.06 -1.75238,-0.35617 -0.75521,-0.75521 z m 17.5,0 c 0.90233,-0.36109 1.98046,-0.31668 2.39583,0.0987 0.41537,0.41536 -0.32292,0.7108 -1.64062,0.65652 -1.45619,-0.06 -1.75238,-0.35617 -0.75521,-0.75521 z m 75.07492,-3.83361 c -1.55484,-1.98257 -1.51062,-2.02678 0.47195,-0.47194 2.08219,1.63296 2.74435,2.65944 1.71555,2.65944 -0.25956,0 -1.24394,-0.98437 -2.1875,-2.1875 z m -162.34055,-5.9375 c 1.61469,-1.71875 3.21704,-3.125 3.56079,-3.125 0.34375,0 -0.6961,1.40625 -2.31079,3.125 -1.61469,1.71875 -3.21704,3.125 -3.56079,3.125 -0.34375,0 0.6961,-1.40625 2.31079,-3.125 z m 153.08588,-4.6875 -7.46088,-7.8125 7.8125,7.46087 c 7.25715,6.93051 8.3845,8.16413 7.46088,8.16413 -0.1934,0 -3.70903,-3.51562 -7.8125,-7.8125 z m -146.83588,-1.32863 c 0,-0.21513 1.82813,-2.04325 4.0625,-4.0625 l 4.0625,-3.67137 -3.67136,4.0625 c -3.42223,3.78682 -4.45364,4.63707 -4.45364,3.67137 z m -25,-2.58081 c 0,-0.25957 0.98438,-1.24395 2.1875,-2.1875 1.98258,-1.55484 2.02679,-1.51063 0.47195,0.47194 -1.63296,2.08219 -2.65945,2.74435 -2.65945,1.71556 z m 193.00624,-2.34056 -2.38124,-2.8125 2.8125,2.38124 c 1.54688,1.30968 2.8125,2.5753 2.8125,2.8125 0,1.00031 -1.00599,0.26182 -3.24376,-2.38124 z m -103.91995,0.69626 c 1.21621,-0.31693 2.90371,-0.29608 3.75,0.0463 0.84629,0.3424 -0.14879,0.60171 -2.21129,0.57623 -2.0625,-0.0255 -2.75492,-0.30562 -1.53871,-0.62255 z m 15,0 c 1.21621,-0.31693 2.90371,-0.29608 3.75,0.0463 0.84629,0.3424 -0.14879,0.60171 -2.21129,0.57623 -2.0625,-0.0255 -2.75492,-0.30562 -1.53871,-0.62255 z m -70.33629,-3.3557 c 0,-0.25957 0.98438,-1.24395 2.1875,-2.1875 1.98258,-1.55484 2.02679,-1.51063 0.47195,0.47194 -1.63296,2.08219 -2.65945,2.74435 -2.65945,1.71556 z m 144.25624,-12.340558 -2.38124,-2.8125 2.8125,2.381235 c 1.54688,1.309679 2.8125,2.575304 2.8125,2.8125 0,1.000316 -1.00599,0.261821 -3.24376,-2.381235 z m -160.50624,-0.159444 c 0,-0.25957 0.98438,-1.243945 2.1875,-2.1875 1.98258,-1.554838 2.02679,-1.510626 0.47195,0.471944 -1.63296,2.082185 -2.65945,2.744349 -2.65945,1.715556 z m 5,-3.75 c 0,-0.25957 0.98438,-1.243945 2.1875,-2.1875 1.98258,-1.554838 2.02679,-1.510626 0.47195,0.471944 -1.63296,2.082185 -2.65945,2.744349 -2.65945,1.715556 z m 54.76563,-4.131949 c 0.90233,-0.361088 1.98046,-0.31668 2.39583,0.09869 0.41537,0.415365 -0.32292,0.710801 -1.64062,0.656525 -1.45619,-0.05997 -1.75238,-0.356176 -0.75521,-0.755209 z m 40,0 c 0.90233,-0.361088 1.98046,-0.31668 2.39583,0.09869 0.41537,0.415365 -0.32292,0.710801 -1.64062,0.656525 -1.45619,-0.05997 -1.75238,-0.356176 -0.75521,-0.755209 z m -32.57813,-1.223958 c 0.85938,-0.346765 2.26563,-0.346765 3.125,0 0.85938,0.346766 0.15625,0.630482 -1.5625,0.630482 -1.71875,0 -2.42187,-0.283716 -1.5625,-0.630482 z m 23.14879,-0.03839 c 1.21621,-0.316928 2.90371,-0.296086 3.75,0.04631 0.84629,0.342403 -0.14879,0.60171 -2.21129,0.576235 -2.0625,-0.02548 -2.75492,-0.305623 -1.53871,-0.622553 z m -31.82066,-18.737654 c 0.90233,-0.361088 1.98046,-0.31668 2.39583,0.09868 0.41537,0.415365 -0.32292,0.710801 -1.64062,0.656524 -1.45619,-0.05998 -1.75238,-0.356175 -0.75521,-0.755208 z m 42.5,0 c 0.90233,-0.361088 1.98046,-0.31668 2.39583,0.09868 0.41537,0.415365 -0.32292,0.710801 -1.64062,0.656524 -1.45619,-0.05998 -1.75238,-0.356175 -0.75521,-0.755208 z m -33.20313,-1.257764 c 1.20313,-0.314409 3.17188,-0.314409 4.375,0 1.20313,0.31441 0.21875,0.571654 -2.1875,0.571654 -2.40625,0 -3.39062,-0.257244 -2.1875,-0.571654 z m 21.25,0 c 1.20313,-0.314409 3.17188,-0.314409 4.375,0 1.20313,0.31441 0.21875,0.571654 -2.1875,0.571654 -2.40625,0 -3.39062,-0.257244 -2.1875,-0.571654 z"
         id="path3470"
         inkscape:connector-curvature="0" />
      <path
         style="fill:#000000"
         d="m -402.56416,703.33283 c -61.9161,-5.5034 -108.91128,-33.46179 -131.20488,-78.05645 -2.06215,-4.125 -15.13209,-42.09375 -29.04431,-84.375 -23.16578,-70.40424 -25.25242,-77.46784 -24.78988,-83.91806 1.30767,-18.23613 15.14485,-30.22613 34.77435,-30.13218 8.44925,0.0405 14.37871,2.39592 20.92957,8.31423 6.03958,5.45639 6.37718,6.22844 24.6451,56.36101 8.01664,22 15.09695,40.53438 15.73405,41.1875 0.71127,0.72916 1.15834,-65.55554 1.15834,-171.73809 l 0,-172.92558 2.77136,-5.54913 c 5.95973,-11.93317 19.36435,-19.04919 32.58085,-17.29596 11.79747,1.56499 19.67712,7.65568 25.15799,19.44626 2.54659,5.47828 2.6311,7.74443 3.2398,86.875 0.34375,44.6875 1.01844,79.09795 1.4993,76.46766 1.53876,-8.41682 6.5194,-15.25462 13.728,-18.84682 8.63368,-4.30234 23.64486,-4.61995 31.79858,-0.6728 12.58563,6.0926 17.94622,17.20404 18.01493,37.34134 l 0.0408,11.96062 2.29563,-6.64674 c 4.49504,-13.01473 15.1892,-20.22826 29.98877,-20.22826 13.89718,0 22.74975,5.28318 28.93729,17.26961 2.24349,4.34605 2.95753,8.47643 3.6736,21.25 0.48885,8.72047 0.9753,14.8486 1.08099,13.61809 0.31151,-3.6268 4.69042,-11.25731 8.51519,-14.8382 7.22852,-6.76761 13.24421,-8.85657 24.0868,-8.36419 8.59817,0.39047 10.59231,0.94397 15.28597,4.2428 3.48761,2.45118 6.63931,6.22123 8.90589,10.65318 3.11865,6.09802 3.7141,9.28392 5.36441,28.70157 2.72602,32.07458 3.66756,82.46234 1.89131,101.21714 -3.04241,32.12394 -10.34818,66.21016 -19.29767,90.03639 -16.51975,43.98052 -53.58033,76.51749 -98.2639,86.26981 -13.15109,2.87028 -36.34389,3.9 -53.49818,2.37525 z M -515.98682,299.91807 c -13.35995,-7.12666 -20.37345,-12.31116 -30.66414,-22.66749 -22.30956,-22.45186 -34.39436,-49.96386 -35.87017,-81.66127 -1.96065,-42.11046 15.89324,-80.37679 48.99964,-105.021209 23.624,-17.585716 46.86192,-25.206298 76.28467,-25.016586 20.56931,0.132627 35.69066,3.733892 53.80085,12.813079 32.80226,16.444776 55.92734,44.894916 65.84454,81.006716 3.95544,14.40305 3.93411,45.39133 -0.0414,60.11872 -7.71121,28.56656 -23.27865,52.22009 -45.27885,68.79774 -8.5313,6.42852 -25.55805,16.36361 -28.04396,16.36361 -0.36091,0 -0.6562,-4.64984 -0.6562,-10.33296 l 0,-10.33296 6.76754,-4.04784 c 35.29655,-21.11179 55.90271,-62.26814 50.86074,-101.58332 -5.50509,-42.92636 -33.20377,-76.43057 -73.87828,-89.362834 -14.06327,-4.471351 -36.05854,-5.618433 -50.72991,-2.64563 -33.85871,6.860651 -60.77269,28.186354 -75.40858,59.751144 -7.48213,16.1365 -9.40712,25.27444 -9.30678,44.1794 0.10025,18.89465 2.5362,29.8788 9.87852,44.54456 9.35131,18.67858 21.8239,32.76534 38.6397,43.64034 l 8.17705,5.28821 0,10.45094 c 0,5.74803 -0.14062,10.43615 -0.3125,10.41806 -0.17187,-0.0181 -4.25,-2.13327 -9.0625,-4.70042 z m 104.375,-59.11471 c 0,-12.0951 0.20845,-13.13295 3.74452,-18.64345 15.29889,-23.84125 11.99155,-54.46749 -8.04901,-74.53444 -13.21488,-13.23228 -27.56909,-18.67441 -46.62653,-17.67759 -10.57057,0.55291 -12.71427,1.11232 -22.11684,5.77148 -11.7256,5.81026 -22.24461,15.90878 -27.6193,26.51523 -3.67657,7.25533 -6.78858,19.66348 -6.81436,27.17004 -0.0306,8.89886 3.61227,22.07079 8.22026,29.72311 4.31457,7.16507 4.33924,7.29137 3.98884,20.42914 l -0.35258,13.2195 -8.37925,-8.44212 c -6.03297,-6.07825 -9.79381,-11.32844 -13.43111,-18.75 -7.40646,-15.11222 -9.26878,-23.85475 -8.45313,-39.68288 1.0843,-21.04144 8.15474,-37.18961 22.76349,-51.98947 15.81355,-16.02043 33.30359,-23.25765 56.25,-23.27574 11.46064,-0.009 15.45964,0.53917 24.01814,3.29255 39.7373,12.78403 63.13847,54.89692 52.85269,95.11401 -4.0047,15.65823 -14.07717,31.96091 -25.17962,40.75421 l -4.81621,3.81452 0,-12.8081 z"
         id="path3468"
         inkscape:connector-curvature="0" />
    </g>
  </g>
</svg>
