G04 DipTrace 3.0.0.1*
G04 Нижний.gbr*
%MOMM*%
G04 #@! TF.FileFunction,Copper,L2,Bot*
G04 #@! TF.Part,Single*
%AMOUTLINE1*
4,1,8,
-0.5,-0.75,
-0.25,-1.0,
0.25,-1.0,
0.5,-0.75,
0.5,0.75,
0.25,1.0,
-0.25,1.0,
-0.5,0.75,
-0.5,-0.75,
0*%
G04 #@! TA.AperFunction,Conductor*
%ADD13C,0.3*%
G04 #@! TA.AperFunction,CopperBalancing*
%ADD15C,0.635*%
%ADD18R,1.5X1.3*%
%ADD19R,1.3X1.5*%
G04 #@! TA.AperFunction,ComponentPad*
%ADD27O,1.0X2.0*%
%ADD28R,1.524X1.524*%
%ADD29C,1.524*%
%ADD30R,1.15X1.05*%
%ADD31O,1.15X1.05*%
%ADD32R,1.5X1.5*%
%ADD33C,1.5*%
%ADD35R,0.6X1.1*%
G04 #@! TA.AperFunction,ComponentPad*
%ADD36R,1.7X1.7*%
%ADD37C,1.7*%
%ADD38R,1.2X2.0*%
%ADD39C,5.0*%
G04 #@! TA.AperFunction,ViaPad*
%ADD40C,1.0*%
%ADD41C,1.016*%
G04 #@! TA.AperFunction,ComponentPad*
%ADD94OUTLINE1*%
%FSLAX35Y35*%
G04*
G71*
G90*
G75*
G01*
G04 Bottom*
%LPD*%
X2029000Y17500000D2*
D13*
X2015000Y17514000D1*
Y17800000D1*
X2000000Y17815000D1*
Y18075000D1*
X2029000Y17500000D2*
X3000000Y18471000D1*
Y18500000D1*
X1775000Y17500000D2*
X1825000Y17550000D1*
Y17800000D1*
Y17875000D1*
X1905000Y17955000D1*
Y18075000D1*
X1275000D2*
X1225000D1*
X1450000Y17850000D1*
X1800000D1*
X1905000Y17955000D1*
X2721000Y14275000D2*
X3750000Y15304000D1*
Y15925000D1*
X1275000Y18075000D2*
Y18000000D1*
X1100000Y18175000D1*
Y18525000D1*
X1450000Y18875000D1*
X2650000D1*
Y18725000D1*
X3125000Y13375000D2*
X3035000D1*
X2525000Y13885000D1*
Y15275000D1*
X1810000Y18345000D2*
X1780000Y18375000D1*
Y18600000D1*
X1275000Y18265000D2*
Y18425000D1*
X1450000Y18600000D1*
X1780000D1*
X1425000Y18575000D2*
X1275000Y18425000D1*
X2225000Y16875000D2*
X2025000Y16675000D1*
Y15575000D1*
X2425000Y15175000D1*
Y13800000D1*
X2654000Y13571000D1*
Y13400000D1*
X3379000Y13375000D2*
X3375000Y13371000D1*
Y13200000D1*
X3325000Y13150000D1*
X2725000D1*
X2654000Y13221000D1*
Y13229000D1*
Y13400000D1*
X2100000Y13425000D2*
X2375000Y13150000D1*
X2575000D1*
X2654000Y13229000D1*
X2527000Y13400000D2*
Y13573000D1*
X2325000Y13775000D1*
Y14975000D1*
X1875000Y15425000D1*
X1810000Y18075000D2*
X1575000D1*
X1325000Y17700000D2*
X1725000Y17300000D1*
X2825000D1*
X2950000Y17175000D1*
Y15700000D1*
X3275000D1*
X2450000Y17650000D2*
X2900000D1*
X3050000Y17500000D1*
Y15900000D1*
X1200000Y14100000D2*
X1350000Y14250000D1*
Y15375000D1*
X2325000Y12700000D2*
Y12925000D1*
X1975000Y13275000D1*
Y14350000D1*
X1775000Y14550000D1*
X2500000Y12925000D2*
X2625000Y13050000D1*
X3500000D1*
X3550000Y13100000D1*
Y13475000D1*
X3375000Y13650000D1*
Y13700000D1*
X3225000Y13850000D1*
X2725000D1*
X2600000Y13975000D1*
Y14550000D1*
X2800000Y14750000D1*
X3000000D1*
X3250000Y15000000D1*
Y15025000D1*
X2580000Y7985000D2*
X2700000Y8105000D1*
Y12025000D1*
X2125000Y15975000D2*
X2400000Y16250000D1*
Y16675000D1*
X2750000Y17025000D1*
X2000000Y18345000D2*
X2100000Y18445000D1*
Y18600000D1*
X3325000Y4055000D2*
X3375000Y4105000D1*
Y5950000D1*
Y12450000D1*
X3440000Y12515000D1*
X3585000D1*
X3390000Y5950000D2*
X3375000D1*
X1625000Y4010000D2*
X1595000Y4040000D1*
Y5915000D1*
Y11685000D1*
X1810000Y11900000D1*
X2300000D1*
X2940000Y12540000D1*
X3195000D1*
X1605000Y5915000D2*
X1595000D1*
D40*
X2450000Y17650000D3*
D41*
X3050000Y15900000D3*
X1425000Y18575000D3*
X2125000Y15975000D3*
X2750000Y17025000D3*
X1350000Y15375000D3*
X1775000Y14550000D3*
X2225000Y16875000D3*
X1875000Y15425000D3*
X2225000Y12225000D3*
X2525000Y15275000D3*
X2100000Y13425000D3*
X2700000Y12025000D3*
X3250000Y15025000D3*
X2500000Y12925000D3*
X2650000Y18725000D3*
X3275000Y15700000D3*
X1575000Y18075000D3*
X1325000Y17700000D3*
X2325000Y12700000D3*
X1200000Y14100000D3*
X3585000Y12515000D3*
X3195000Y12540000D3*
X1605000Y5915000D3*
X3390000Y5950000D3*
X2580000Y7985000D3*
X2850000Y8275000D3*
Y8575000D3*
Y8425000D3*
Y8125000D3*
Y8875000D3*
Y8725000D3*
Y9175000D3*
Y9475000D3*
Y9325000D3*
Y9025000D3*
Y9775000D3*
Y9625000D3*
Y10075000D3*
Y10375000D3*
Y10225000D3*
Y9925000D3*
Y10675000D3*
Y10525000D3*
Y10975000D3*
Y11275000D3*
Y11125000D3*
Y10825000D3*
Y11575000D3*
Y11425000D3*
Y11725000D3*
X2550000Y8575000D3*
Y8875000D3*
Y8725000D3*
Y8425000D3*
Y9175000D3*
Y9025000D3*
Y9475000D3*
Y9775000D3*
Y9625000D3*
Y9325000D3*
Y10075000D3*
Y9925000D3*
Y10375000D3*
Y10675000D3*
Y10525000D3*
Y10225000D3*
Y10975000D3*
Y10825000D3*
Y11275000D3*
Y11575000D3*
Y11425000D3*
Y11125000D3*
Y11725000D3*
X1088147Y18830083D2*
D15*
X3811917D1*
X1088147Y18766917D2*
X1629340D1*
X2250620D2*
X3811917D1*
X1088147Y18703750D2*
X1377777D1*
X1472233D2*
X1629340D1*
X2250620D2*
X3811917D1*
X1088147Y18640583D2*
X1300577D1*
X2250620D2*
X2824353D1*
X3175660D2*
X3549327D1*
X3750697D2*
X3811917D1*
X1088147Y18577417D2*
X1280613D1*
X2250620D2*
X2824353D1*
X3175660D2*
X3493090D1*
X1088147Y18514250D2*
X1217450D1*
X2250620D2*
X2824353D1*
X3175660D2*
X3474950D1*
X1088147Y18451083D2*
X1172880D1*
X1485177D2*
X1629340D1*
X2250620D2*
X2824353D1*
X3175660D2*
X3481603D1*
X1088147Y18387917D2*
X1109410D1*
X1440607D2*
X1674363D1*
X2187547D2*
X2770120D1*
X3175660D2*
X3516787D1*
X3783237D2*
X3811917D1*
X1088147Y18324750D2*
X1109410D1*
X1440607D2*
X1688037D1*
X2126480D2*
X2706957D1*
X3000477D2*
X3811917D1*
X1088147Y18261583D2*
X1109410D1*
X1440607D2*
X1689403D1*
X2120647D2*
X2643793D1*
X2937313D2*
X3811917D1*
X1088147Y18198417D2*
X1109410D1*
X1440607D2*
X1513673D1*
X1636297D2*
X1689403D1*
X2120647D2*
X2580627D1*
X2874147D2*
X2912217D1*
X3087793D2*
X3562177D1*
X3737753D2*
X3811917D1*
X1088147Y18135250D2*
X1109410D1*
X2120647D2*
X2517463D1*
X2810983D2*
X2847413D1*
X3152600D2*
X3497373D1*
X1088147Y18072083D2*
X1433557D1*
X2120647D2*
X2454300D1*
X2747820D2*
X2825810D1*
X3174200D2*
X3475770D1*
X1088147Y18008917D2*
X1450783D1*
X2120647D2*
X2391137D1*
X2684657D2*
X2829457D1*
X3170553D2*
X3479417D1*
X1088147Y17945750D2*
X1529353D1*
X1620620D2*
X1689403D1*
X2170683D2*
X2327970D1*
X2621493D2*
X2860263D1*
X3139747D2*
X3510223D1*
X3789707D2*
X3811917D1*
X1088147Y17882583D2*
X1859390D1*
X2170683D2*
X2264807D1*
X2558327D2*
X2968543D1*
X3031467D2*
X3618507D1*
X3681427D2*
X3811917D1*
X1088147Y17819417D2*
X1255460D1*
X1394487D2*
X1859390D1*
X2170683D2*
X2201643D1*
X2495163D2*
X3811917D1*
X1088147Y17756250D2*
X1195850D1*
X1454187D2*
X1859390D1*
X2538457D2*
X3811917D1*
X1088147Y17693083D2*
X1183727D1*
X1478707D2*
X1859390D1*
X3003667D2*
X3811917D1*
X1088147Y17629917D2*
X1203140D1*
X1541870D2*
X1863400D1*
X3066830D2*
X3811917D1*
X1088147Y17566750D2*
X1296473D1*
X1605033D2*
X1863400D1*
X2242507D2*
X2338270D1*
X3129813D2*
X3811917D1*
X1088147Y17503583D2*
X1374677D1*
X1668197D2*
X1863400D1*
X2194657D2*
X2899637D1*
X3155607D2*
X3811917D1*
X1088147Y17440417D2*
X1437840D1*
X1731363D2*
X1863400D1*
X2194657D2*
X2944390D1*
X3155607D2*
X3811917D1*
X1088147Y17377250D2*
X1501007D1*
X2893743D2*
X2944390D1*
X3155607D2*
X3811917D1*
X1088147Y17314083D2*
X1564170D1*
X3155607D2*
X3811917D1*
X1088147Y17250917D2*
X1627333D1*
X3155607D2*
X3811917D1*
X1088147Y17187750D2*
X2790447D1*
X3155607D2*
X3811917D1*
X1088147Y17124583D2*
X2652360D1*
X3155607D2*
X3811917D1*
X1088147Y17061417D2*
X2613530D1*
X3155607D2*
X3811917D1*
X1088147Y16998250D2*
X2163363D1*
X2286623D2*
X2576527D1*
X3155607D2*
X3811917D1*
X1088147Y16935083D2*
X2097647D1*
X2352337D2*
X2513270D1*
X3155607D2*
X3811917D1*
X1088147Y16871917D2*
X2075133D1*
X2366373D2*
X2450107D1*
X2743720D2*
X2844403D1*
X3155607D2*
X3811917D1*
X1088147Y16808750D2*
X2011970D1*
X2349057D2*
X2386943D1*
X2680553D2*
X2844403D1*
X3155607D2*
X3811917D1*
X1088147Y16745583D2*
X1948803D1*
X2270123D2*
X2323780D1*
X2617390D2*
X2844403D1*
X3155607D2*
X3811917D1*
X1088147Y16682417D2*
X1919637D1*
X2179160D2*
X2294613D1*
X2554227D2*
X2844403D1*
X3155607D2*
X3811917D1*
X1088147Y16619250D2*
X1919363D1*
X2130670D2*
X2294340D1*
X2505647D2*
X2844403D1*
X3155607D2*
X3811917D1*
X1088147Y16556083D2*
X1919363D1*
X2130670D2*
X2294340D1*
X2505647D2*
X2844403D1*
X3155607D2*
X3811917D1*
X1088147Y16492917D2*
X1919363D1*
X2130670D2*
X2294340D1*
X2505647D2*
X2844403D1*
X3155607D2*
X3811917D1*
X1088147Y16429750D2*
X1919363D1*
X2130670D2*
X2294340D1*
X2505647D2*
X2844403D1*
X3155607D2*
X3811917D1*
X1088147Y16366583D2*
X1919363D1*
X2130670D2*
X2294340D1*
X2505647D2*
X2844403D1*
X3155607D2*
X3811917D1*
X1088147Y16303417D2*
X1919363D1*
X2130670D2*
X2294340D1*
X2505647D2*
X2844403D1*
X3155607D2*
X3691513D1*
X1088147Y16240250D2*
X1919363D1*
X2130670D2*
X2243480D1*
X2505190D2*
X2844403D1*
X3155607D2*
X3618413D1*
X1088147Y16177083D2*
X1919363D1*
X2130670D2*
X2180317D1*
X2473837D2*
X2844403D1*
X3155607D2*
X3601917D1*
X1088147Y16113917D2*
X1919363D1*
X2410670D2*
X2844403D1*
X3155607D2*
X3616227D1*
X1088147Y16050750D2*
X1919363D1*
X2347507D2*
X2844403D1*
X3155607D2*
X3601827D1*
X1088147Y15987583D2*
X1919363D1*
X2284343D2*
X2844403D1*
X3159160D2*
X3616957D1*
X1088147Y15924417D2*
X1919363D1*
X2256637D2*
X2844403D1*
X3189240D2*
X3684403D1*
X1088147Y15861250D2*
X1919363D1*
X2204227D2*
X2844403D1*
X3185777D2*
X3811917D1*
X1088147Y15798083D2*
X1919363D1*
X2130670D2*
X2844403D1*
X3374267D2*
X3811917D1*
X1088147Y15734917D2*
X1919363D1*
X2130670D2*
X2844403D1*
X3411817D2*
X3811917D1*
X1088147Y15671750D2*
X1919363D1*
X2130670D2*
X2848507D1*
X3413457D2*
X3811917D1*
X1088147Y15608583D2*
X1919363D1*
X2138147D2*
X2904923D1*
X3380827D2*
X3811917D1*
X1088147Y15545417D2*
X1807437D1*
X2201310D2*
X3811917D1*
X1088147Y15482250D2*
X1261473D1*
X1438510D2*
X1746280D1*
X2264473D2*
X3811917D1*
X1088147Y15419083D2*
X1215993D1*
X1484083D2*
X1733700D1*
X2327730D2*
X3811917D1*
X1088147Y15355917D2*
X1209887D1*
X1490100D2*
X1752567D1*
X2390893D2*
X2410460D1*
X2639540D2*
X3811917D1*
X1088147Y15292750D2*
X1236500D1*
X1463483D2*
X1841070D1*
X2665243D2*
X3811917D1*
X1088147Y15229583D2*
X1244340D1*
X1455647D2*
X1923650D1*
X2658587D2*
X3811917D1*
X1088147Y15166417D2*
X1244340D1*
X1455647D2*
X1986813D1*
X2630607D2*
X3811917D1*
X1088147Y15103250D2*
X1244340D1*
X1455647D2*
X2049977D1*
X2630607D2*
X3133520D1*
X3366427D2*
X3811917D1*
X1088147Y15040083D2*
X1244340D1*
X1455647D2*
X2113140D1*
X2630607D2*
X3109363D1*
X3390580D2*
X3811917D1*
X1088147Y14976917D2*
X1244340D1*
X1455647D2*
X2176303D1*
X2630607D2*
X3080107D1*
X3382560D2*
X3811917D1*
X1088147Y14913750D2*
X1244340D1*
X1455647D2*
X2219327D1*
X2630607D2*
X3016943D1*
X3332977D2*
X3811917D1*
X1088147Y14850583D2*
X1244340D1*
X1455647D2*
X2219327D1*
X2630607D2*
X2953780D1*
X3247390D2*
X3811917D1*
X1088147Y14787417D2*
X1244340D1*
X1455647D2*
X2219327D1*
X2630607D2*
X2690640D1*
X3184227D2*
X3811917D1*
X1088147Y14724250D2*
X1244340D1*
X1455647D2*
X2219327D1*
X3121063D2*
X3811917D1*
X1088147Y14661083D2*
X1244340D1*
X1455647D2*
X1691773D1*
X1858237D2*
X2219327D1*
X3050517D2*
X3811917D1*
X1088147Y14597917D2*
X1244340D1*
X1455647D2*
X1642373D1*
X1907637D2*
X2219327D1*
X2794670D2*
X3811917D1*
X1088147Y14534750D2*
X1244340D1*
X1455647D2*
X1634443D1*
X1936987D2*
X2219327D1*
X2731503D2*
X3811917D1*
X1088147Y14471583D2*
X1244340D1*
X1599110D2*
X1658687D1*
X2705620D2*
X3811917D1*
X1088147Y14408417D2*
X1244340D1*
X1640217D2*
X1769793D1*
X2705620D2*
X2808127D1*
X3141843D2*
X3811917D1*
X1088147Y14345250D2*
X1244340D1*
X1650607D2*
X1832960D1*
X2705620D2*
X2808127D1*
X3141843D2*
X3811917D1*
X1088147Y14282083D2*
X1235317D1*
X1636387D2*
X1869327D1*
X2705620D2*
X2808127D1*
X3141843D2*
X3811917D1*
X1088147Y14218917D2*
X1129587D1*
X1588447D2*
X1869327D1*
X2705620D2*
X2808127D1*
X3141843D2*
X3811917D1*
X1402507Y14155750D2*
X1869327D1*
X2080633D2*
X2219327D1*
X2705620D2*
X2808127D1*
X3141843D2*
X3811917D1*
X1341257Y14092583D2*
X1869327D1*
X2080633D2*
X2219327D1*
X2705620D2*
X3811917D1*
X1321570Y14029417D2*
X1869327D1*
X2080633D2*
X2219327D1*
X2705620D2*
X3811917D1*
X1088147Y13966250D2*
X1174703D1*
X1225317D2*
X1869327D1*
X2080633D2*
X2219327D1*
X2755477D2*
X3811917D1*
X1088147Y13903083D2*
X1869327D1*
X2080633D2*
X2219327D1*
X3318667D2*
X3811917D1*
X1088147Y13839917D2*
X1869327D1*
X2080633D2*
X2219327D1*
X3381830D2*
X3811917D1*
X1088147Y13776750D2*
X1869327D1*
X2080633D2*
X2219327D1*
X3444993D2*
X3811917D1*
X1088147Y13713583D2*
X1869327D1*
X2080633D2*
X2240653D1*
X2843160D2*
X3214637D1*
X3479720D2*
X3811917D1*
X1088147Y13650417D2*
X1869327D1*
X2080633D2*
X2302817D1*
X2906323D2*
X3269327D1*
X3521373D2*
X3811917D1*
X1088147Y13587250D2*
X1869327D1*
X2080633D2*
X2365980D1*
X2969487D2*
X3291657D1*
X3584540D2*
X3811917D1*
X1088147Y13524083D2*
X1869327D1*
X2198210D2*
X2408637D1*
X3642690D2*
X3811917D1*
X1088147Y13460917D2*
X1869327D1*
X2236583D2*
X2386760D1*
X3655633D2*
X3811917D1*
X1088147Y13397750D2*
X1869327D1*
X2274043D2*
X2386397D1*
X2794670D2*
X2865460D1*
X3655633D2*
X3811917D1*
X1088147Y13334583D2*
X1869327D1*
X2337207D2*
X2387217D1*
X2793757D2*
X2928623D1*
X3655633D2*
X3811917D1*
X1088147Y13271417D2*
X1869417D1*
X2769240D2*
X2989327D1*
X3655633D2*
X3811917D1*
X1088147Y13208250D2*
X1895120D1*
X3655633D2*
X3811917D1*
X1088147Y13145083D2*
X1958193D1*
X3655633D2*
X3811917D1*
X1088147Y13081917D2*
X2021357D1*
X3653993D2*
X3811917D1*
X1088147Y13018750D2*
X2084520D1*
X3615530D2*
X3811917D1*
X1088147Y12955583D2*
X2147687D1*
X3537053D2*
X3811917D1*
X1088147Y12892417D2*
X2210850D1*
X2637443D2*
X3811917D1*
X1088147Y12829250D2*
X2219327D1*
X2601623D2*
X3811917D1*
X1088147Y12766083D2*
X2200823D1*
X2449137D2*
X3811917D1*
X1088147Y12702917D2*
X2183597D1*
X2466453D2*
X3811917D1*
X1088147Y12639750D2*
X2197723D1*
X2452233D2*
X3097517D1*
X3292417D2*
X3526813D1*
X3643147D2*
X3811917D1*
X1088147Y12576583D2*
X2263713D1*
X2386243D2*
X2829820D1*
X3331427D2*
X3354870D1*
X3711597D2*
X3811917D1*
X1088147Y12513417D2*
X2766657D1*
X3726453D2*
X3811917D1*
X1088147Y12450250D2*
X2703493D1*
X3709957D2*
X3811917D1*
X1088147Y12387083D2*
X2640330D1*
X2933850D2*
X3269327D1*
X3480633D2*
X3535197D1*
X3634760D2*
X3811917D1*
X1088147Y12323917D2*
X2126630D1*
X2323353D2*
X2577163D1*
X2870683D2*
X3269327D1*
X3480633D2*
X3811917D1*
X1088147Y12260750D2*
X2088350D1*
X2361637D2*
X2514000D1*
X2807520D2*
X3269327D1*
X3480633D2*
X3811917D1*
X1088147Y12197583D2*
X2086343D1*
X2363640D2*
X2450837D1*
X2744357D2*
X3269327D1*
X3480633D2*
X3811917D1*
X1088147Y12134417D2*
X2118427D1*
X2331557D2*
X2387673D1*
X2785553D2*
X3269327D1*
X3480633D2*
X3811917D1*
X1088147Y12071250D2*
X2324507D1*
X2833313D2*
X3269327D1*
X3480633D2*
X3811917D1*
X1088147Y12008083D2*
X2261343D1*
X2840333D2*
X3269327D1*
X3480633D2*
X3811917D1*
X1088147Y11944917D2*
X1708180D1*
X2491700D2*
X2584820D1*
X2815177D2*
X3269327D1*
X3480633D2*
X3811917D1*
X1088147Y11881750D2*
X1645017D1*
X2428537D2*
X2594390D1*
X2805607D2*
X3269327D1*
X3480633D2*
X3811917D1*
X1088147Y11818583D2*
X1581853D1*
X2363183D2*
X2594390D1*
X2805607D2*
X3269327D1*
X3480633D2*
X3811917D1*
X1088147Y11755417D2*
X1518687D1*
X1812207D2*
X2594390D1*
X2805607D2*
X3269327D1*
X3480633D2*
X3811917D1*
X1088147Y11692250D2*
X1489613D1*
X1749043D2*
X2594390D1*
X2805607D2*
X3269327D1*
X3480633D2*
X3811917D1*
X1088147Y11629083D2*
X1489340D1*
X1700647D2*
X2594390D1*
X2805607D2*
X3269327D1*
X3480633D2*
X3811917D1*
X1088147Y11565917D2*
X1489340D1*
X1700647D2*
X2594390D1*
X2805607D2*
X3269327D1*
X3480633D2*
X3811917D1*
X1088147Y11502750D2*
X1489340D1*
X1700647D2*
X2594390D1*
X2805607D2*
X3269327D1*
X3480633D2*
X3811917D1*
X1088147Y11439583D2*
X1489340D1*
X1700647D2*
X2594390D1*
X2805607D2*
X3269327D1*
X3480633D2*
X3811917D1*
X1088147Y11376417D2*
X1489340D1*
X1700647D2*
X2594390D1*
X2805607D2*
X3269327D1*
X3480633D2*
X3811917D1*
X1088147Y11313250D2*
X1489340D1*
X1700647D2*
X2594390D1*
X2805607D2*
X3269327D1*
X3480633D2*
X3811917D1*
X1088147Y11250083D2*
X1489340D1*
X1700647D2*
X2594390D1*
X2805607D2*
X3269327D1*
X3480633D2*
X3811917D1*
X1088147Y11186917D2*
X1489340D1*
X1700647D2*
X2594390D1*
X2805607D2*
X3269327D1*
X3480633D2*
X3811917D1*
X1088147Y11123750D2*
X1489340D1*
X1700647D2*
X2594390D1*
X2805607D2*
X3269327D1*
X3480633D2*
X3811917D1*
X1088147Y11060583D2*
X1489340D1*
X1700647D2*
X2594390D1*
X2805607D2*
X3269327D1*
X3480633D2*
X3811917D1*
X1088147Y10997417D2*
X1489340D1*
X1700647D2*
X2594390D1*
X2805607D2*
X3269327D1*
X3480633D2*
X3811917D1*
X1088147Y10934250D2*
X1489340D1*
X1700647D2*
X2594390D1*
X2805607D2*
X3269327D1*
X3480633D2*
X3811917D1*
X1088147Y10871083D2*
X1489340D1*
X1700647D2*
X2594390D1*
X2805607D2*
X3269327D1*
X3480633D2*
X3811917D1*
X1088147Y10807917D2*
X1489340D1*
X1700647D2*
X2594390D1*
X2805607D2*
X3269327D1*
X3480633D2*
X3811917D1*
X1088147Y10744750D2*
X1489340D1*
X1700647D2*
X2594390D1*
X2805607D2*
X3269327D1*
X3480633D2*
X3811917D1*
X1088147Y10681583D2*
X1489340D1*
X1700647D2*
X2594390D1*
X2805607D2*
X3269327D1*
X3480633D2*
X3811917D1*
X1088147Y10618417D2*
X1489340D1*
X1700647D2*
X2594390D1*
X2805607D2*
X3269327D1*
X3480633D2*
X3811917D1*
X1088147Y10555250D2*
X1489340D1*
X1700647D2*
X2594390D1*
X2805607D2*
X3269327D1*
X3480633D2*
X3811917D1*
X1088147Y10492083D2*
X1489340D1*
X1700647D2*
X2594390D1*
X2805607D2*
X3269327D1*
X3480633D2*
X3811917D1*
X1088147Y10428917D2*
X1489340D1*
X1700647D2*
X2594390D1*
X2805607D2*
X3269327D1*
X3480633D2*
X3811917D1*
X1088147Y10365750D2*
X1489340D1*
X1700647D2*
X2594390D1*
X2805607D2*
X3269327D1*
X3480633D2*
X3811917D1*
X1088147Y10302583D2*
X1489340D1*
X1700647D2*
X2594390D1*
X2805607D2*
X3269327D1*
X3480633D2*
X3811917D1*
X1088147Y10239417D2*
X1489340D1*
X1700647D2*
X2594390D1*
X2805607D2*
X3269327D1*
X3480633D2*
X3811917D1*
X1088147Y10176250D2*
X1489340D1*
X1700647D2*
X2594390D1*
X2805607D2*
X3269327D1*
X3480633D2*
X3811917D1*
X1088147Y10113083D2*
X1489340D1*
X1700647D2*
X2594390D1*
X2805607D2*
X3269327D1*
X3480633D2*
X3811917D1*
X1088147Y10049917D2*
X1489340D1*
X1700647D2*
X2594390D1*
X2805607D2*
X3269327D1*
X3480633D2*
X3811917D1*
X1088147Y9986750D2*
X1489340D1*
X1700647D2*
X2594390D1*
X2805607D2*
X3269327D1*
X3480633D2*
X3811917D1*
X1088147Y9923583D2*
X1489340D1*
X1700647D2*
X2594390D1*
X2805607D2*
X3269327D1*
X3480633D2*
X3811917D1*
X1088147Y9860417D2*
X1489340D1*
X1700647D2*
X2594390D1*
X2805607D2*
X3269327D1*
X3480633D2*
X3811917D1*
X1088147Y9797250D2*
X1489340D1*
X1700647D2*
X2594390D1*
X2805607D2*
X3269327D1*
X3480633D2*
X3811917D1*
X1088147Y9734083D2*
X1489340D1*
X1700647D2*
X2594390D1*
X2805607D2*
X3269327D1*
X3480633D2*
X3811917D1*
X1088147Y9670917D2*
X1489340D1*
X1700647D2*
X2594390D1*
X2805607D2*
X3269327D1*
X3480633D2*
X3811917D1*
X1088147Y9607750D2*
X1489340D1*
X1700647D2*
X2594390D1*
X2805607D2*
X3269327D1*
X3480633D2*
X3811917D1*
X1088147Y9544583D2*
X1489340D1*
X1700647D2*
X2594390D1*
X2805607D2*
X3269327D1*
X3480633D2*
X3811917D1*
X1088147Y9481417D2*
X1489340D1*
X1700647D2*
X2594390D1*
X2805607D2*
X3269327D1*
X3480633D2*
X3811917D1*
X1088147Y9418250D2*
X1489340D1*
X1700647D2*
X2594390D1*
X2805607D2*
X3269327D1*
X3480633D2*
X3811917D1*
X1088147Y9355083D2*
X1489340D1*
X1700647D2*
X2594390D1*
X2805607D2*
X3269327D1*
X3480633D2*
X3811917D1*
X1088147Y9291917D2*
X1489340D1*
X1700647D2*
X2594390D1*
X2805607D2*
X3269327D1*
X3480633D2*
X3811917D1*
X1088147Y9228750D2*
X1489340D1*
X1700647D2*
X2594390D1*
X2805607D2*
X3269327D1*
X3480633D2*
X3811917D1*
X1088147Y9165583D2*
X1489340D1*
X1700647D2*
X2594390D1*
X2805607D2*
X3269327D1*
X3480633D2*
X3811917D1*
X1088147Y9102417D2*
X1489340D1*
X1700647D2*
X2594390D1*
X2805607D2*
X3269327D1*
X3480633D2*
X3811917D1*
X1088147Y9039250D2*
X1489340D1*
X1700647D2*
X2594390D1*
X2805607D2*
X3269327D1*
X3480633D2*
X3811917D1*
X1088147Y8976083D2*
X1489340D1*
X1700647D2*
X2594390D1*
X2805607D2*
X3269327D1*
X3480633D2*
X3811917D1*
X1088147Y8912917D2*
X1489340D1*
X1700647D2*
X2594390D1*
X2805607D2*
X3269327D1*
X3480633D2*
X3811917D1*
X1088147Y8849750D2*
X1489340D1*
X1700647D2*
X2594390D1*
X2805607D2*
X3269327D1*
X3480633D2*
X3811917D1*
X1088147Y8786583D2*
X1489340D1*
X1700647D2*
X2594390D1*
X2805607D2*
X3269327D1*
X3480633D2*
X3811917D1*
X1088147Y8723417D2*
X1489340D1*
X1700647D2*
X2594390D1*
X2805607D2*
X3269327D1*
X3480633D2*
X3811917D1*
X1088147Y8660250D2*
X1489340D1*
X1700647D2*
X2594390D1*
X2805607D2*
X3269327D1*
X3480633D2*
X3811917D1*
X1088147Y8597083D2*
X1489340D1*
X1700647D2*
X2594390D1*
X2805607D2*
X3269327D1*
X3480633D2*
X3811917D1*
X1088147Y8533917D2*
X1489340D1*
X1700647D2*
X2594390D1*
X2805607D2*
X3269327D1*
X3480633D2*
X3811917D1*
X1088147Y8470750D2*
X1489340D1*
X1700647D2*
X2594390D1*
X2805607D2*
X3269327D1*
X3480633D2*
X3811917D1*
X1088147Y8407583D2*
X1489340D1*
X1700647D2*
X2594390D1*
X2805607D2*
X3269327D1*
X3480633D2*
X3811917D1*
X1088147Y8344417D2*
X1489340D1*
X1700647D2*
X2594390D1*
X2805607D2*
X3269327D1*
X3480633D2*
X3811917D1*
X1088147Y8281250D2*
X1489340D1*
X1700647D2*
X2594390D1*
X2805607D2*
X3269327D1*
X3480633D2*
X3811917D1*
X1088147Y8218083D2*
X1489340D1*
X1700647D2*
X2594390D1*
X2805607D2*
X3269327D1*
X3480633D2*
X3811917D1*
X1088147Y8154917D2*
X1489340D1*
X1700647D2*
X2594390D1*
X2805607D2*
X3269327D1*
X3480633D2*
X3811917D1*
X1088147Y8091750D2*
X1489340D1*
X1700647D2*
X2490850D1*
X2804787D2*
X3269327D1*
X3480633D2*
X3811917D1*
X1088147Y8028583D2*
X1489340D1*
X1700647D2*
X2445823D1*
X2770333D2*
X3269327D1*
X3480633D2*
X3811917D1*
X1088147Y7965417D2*
X1489340D1*
X1700647D2*
X2439990D1*
X2720020D2*
X3269327D1*
X3480633D2*
X3811917D1*
X1088147Y7902250D2*
X1489340D1*
X1700647D2*
X2466877D1*
X2693133D2*
X3269327D1*
X3480633D2*
X3811917D1*
X1088147Y7839083D2*
X1489340D1*
X1700647D2*
X3269327D1*
X3480633D2*
X3811917D1*
X1088147Y7775917D2*
X1489340D1*
X1700647D2*
X3269327D1*
X3480633D2*
X3811917D1*
X1088147Y7712750D2*
X1489340D1*
X1700647D2*
X3269327D1*
X3480633D2*
X3811917D1*
X1088147Y7649583D2*
X1489340D1*
X1700647D2*
X3269327D1*
X3480633D2*
X3811917D1*
X1088147Y7586417D2*
X1489340D1*
X1700647D2*
X3269327D1*
X3480633D2*
X3811917D1*
X1088147Y7523250D2*
X1489340D1*
X1700647D2*
X3269327D1*
X3480633D2*
X3811917D1*
X1088147Y7460083D2*
X1489340D1*
X1700647D2*
X3269327D1*
X3480633D2*
X3811917D1*
X1088147Y7396917D2*
X1489340D1*
X1700647D2*
X3269327D1*
X3480633D2*
X3811917D1*
X1088147Y7333750D2*
X1489340D1*
X1700647D2*
X3269327D1*
X3480633D2*
X3811917D1*
X1088147Y7270583D2*
X1489340D1*
X1700647D2*
X3269327D1*
X3480633D2*
X3811917D1*
X1088147Y7207417D2*
X1489340D1*
X1700647D2*
X3269327D1*
X3480633D2*
X3811917D1*
X1088147Y7144250D2*
X1489340D1*
X1700647D2*
X3269327D1*
X3480633D2*
X3811917D1*
X1088147Y7081083D2*
X1489340D1*
X1700647D2*
X3269327D1*
X3480633D2*
X3811917D1*
X1088147Y7017917D2*
X1489340D1*
X1700647D2*
X3269327D1*
X3480633D2*
X3811917D1*
X1088147Y6954750D2*
X1489340D1*
X1700647D2*
X3269327D1*
X3480633D2*
X3811917D1*
X1088147Y6891583D2*
X1489340D1*
X1700647D2*
X3269327D1*
X3480633D2*
X3811917D1*
X1088147Y6828417D2*
X1489340D1*
X1700647D2*
X3269327D1*
X3480633D2*
X3811917D1*
X1088147Y6765250D2*
X1489340D1*
X1700647D2*
X3269327D1*
X3480633D2*
X3811917D1*
X1088147Y6702083D2*
X1489340D1*
X1700647D2*
X3269327D1*
X3480633D2*
X3811917D1*
X1088147Y6638917D2*
X1489340D1*
X1700647D2*
X3269327D1*
X3480633D2*
X3811917D1*
X1088147Y6575750D2*
X1489340D1*
X1700647D2*
X3269327D1*
X3480633D2*
X3811917D1*
X1088147Y6512583D2*
X1489340D1*
X1700647D2*
X3269327D1*
X3480633D2*
X3811917D1*
X1088147Y6449417D2*
X1489340D1*
X1700647D2*
X3269327D1*
X3480633D2*
X3811917D1*
X1088147Y6386250D2*
X1489340D1*
X1700647D2*
X3269327D1*
X3480633D2*
X3811917D1*
X1088147Y6323083D2*
X1489340D1*
X1700647D2*
X3269327D1*
X3480633D2*
X3811917D1*
X1088147Y6259917D2*
X1489340D1*
X1700647D2*
X3269327D1*
X3480633D2*
X3811917D1*
X1088147Y6196750D2*
X1489340D1*
X1700647D2*
X3269327D1*
X3480633D2*
X3811917D1*
X1088147Y6133583D2*
X1489340D1*
X1700647D2*
X3269327D1*
X3480633D2*
X3811917D1*
X1088147Y6070417D2*
X1489340D1*
X1700647D2*
X3269327D1*
X3480633D2*
X3811917D1*
X1088147Y6007250D2*
X1489340D1*
X1710033D2*
X3261303D1*
X3518730D2*
X3811917D1*
X1088147Y5944083D2*
X1466733D1*
X1743303D2*
X3248727D1*
X3531310D2*
X3811917D1*
X1088147Y5880917D2*
X1467920D1*
X1742027D2*
X3267593D1*
X3512443D2*
X3811917D1*
X1088147Y5817750D2*
X1489340D1*
X1705113D2*
X3269327D1*
X3480633D2*
X3811917D1*
X1088147Y5754583D2*
X1489340D1*
X1700647D2*
X3269327D1*
X3480633D2*
X3811917D1*
X1088147Y5691417D2*
X1489340D1*
X1700647D2*
X3269327D1*
X3480633D2*
X3811917D1*
X1088147Y5628250D2*
X1489340D1*
X1700647D2*
X3269327D1*
X3480633D2*
X3811917D1*
X1088147Y5565083D2*
X1489340D1*
X1700647D2*
X3269327D1*
X3480633D2*
X3811917D1*
X1088147Y5501917D2*
X1489340D1*
X1700647D2*
X3269327D1*
X3480633D2*
X3811917D1*
X1088147Y5438750D2*
X1489340D1*
X1700647D2*
X3269327D1*
X3480633D2*
X3811917D1*
X1088147Y5375583D2*
X1489340D1*
X1700647D2*
X3269327D1*
X3480633D2*
X3811917D1*
X1088147Y5312417D2*
X1489340D1*
X1700647D2*
X3269327D1*
X3480633D2*
X3811917D1*
X1088147Y5249250D2*
X1489340D1*
X1700647D2*
X3269327D1*
X3480633D2*
X3811917D1*
X1088147Y5186083D2*
X1489340D1*
X1700647D2*
X3269327D1*
X3480633D2*
X3811917D1*
X1088147Y5122917D2*
X1489340D1*
X1700647D2*
X3269327D1*
X3480633D2*
X3811917D1*
X1088147Y5059750D2*
X1489340D1*
X1700647D2*
X3269327D1*
X3480633D2*
X3811917D1*
X1088147Y4996583D2*
X1489340D1*
X1700647D2*
X3269327D1*
X3480633D2*
X3811917D1*
X1088147Y4933417D2*
X1489340D1*
X1700647D2*
X3269327D1*
X3480633D2*
X3811917D1*
X1088147Y4870250D2*
X1489340D1*
X1700647D2*
X3269327D1*
X3480633D2*
X3811917D1*
X1088147Y4807083D2*
X1489340D1*
X1700647D2*
X3269327D1*
X3480633D2*
X3811917D1*
X1088147Y4743917D2*
X1489340D1*
X1700647D2*
X3269327D1*
X3480633D2*
X3811917D1*
X1088147Y4680750D2*
X1489340D1*
X1700647D2*
X3269327D1*
X3480633D2*
X3811917D1*
X1088147Y4617583D2*
X1489340D1*
X1700647D2*
X3269327D1*
X3480633D2*
X3811917D1*
X1088147Y4554417D2*
X1489340D1*
X1700647D2*
X3269327D1*
X3480633D2*
X3811917D1*
X1088147Y4491250D2*
X1489340D1*
X1700647D2*
X3269327D1*
X3480633D2*
X3811917D1*
X1088147Y4428083D2*
X1489340D1*
X1700647D2*
X3269327D1*
X3480633D2*
X3811917D1*
X1088147Y4364917D2*
X1489340D1*
X1700647D2*
X3269327D1*
X3480633D2*
X3811917D1*
X1088147Y4301750D2*
X1489340D1*
X1700647D2*
X3269327D1*
X3480633D2*
X3811917D1*
X1088147Y4238583D2*
X1477853D1*
X1722157D2*
X3227853D1*
X3480633D2*
X3811917D1*
X1088147Y4175417D2*
X1372217D1*
X1827793D2*
X3122217D1*
X3577793D2*
X3811917D1*
X1088147Y4112250D2*
X1316710D1*
X1883303D2*
X3066710D1*
X3633303D2*
X3811917D1*
X1088147Y4049083D2*
X1283257D1*
X1916753D2*
X3033257D1*
X3666753D2*
X3811917D1*
X1088147Y3985917D2*
X1264937D1*
X1935073D2*
X3014937D1*
X3685073D2*
X3811917D1*
X1088147Y3922750D2*
X1259377D1*
X1940633D2*
X3009377D1*
X3690633D2*
X3811917D1*
X1088147Y3859583D2*
X1265850D1*
X1934160D2*
X3015850D1*
X3684160D2*
X3811917D1*
X1088147Y3796417D2*
X1285080D1*
X1914930D2*
X3035080D1*
X3664930D2*
X3811917D1*
X1088147Y3733250D2*
X1319807D1*
X1880203D2*
X3069807D1*
X3630203D2*
X3811917D1*
X1088147Y3670083D2*
X1377413D1*
X1822600D2*
X3127413D1*
X3572600D2*
X3811917D1*
X1088147Y3606917D2*
X1490797D1*
X1709213D2*
X3240797D1*
X3459213D2*
X3811917D1*
X1088147Y3543750D2*
X3811917D1*
X1088147Y3480583D2*
X3811917D1*
X1088147Y3417417D2*
X3811917D1*
X1088147Y3354250D2*
X3811917D1*
X1088147Y3291083D2*
X3811917D1*
X1088147Y3227917D2*
X3811917D1*
X1088147Y3164750D2*
X3811917D1*
X1088147Y3101583D2*
X3811917D1*
X1088147Y3038417D2*
X3811917D1*
X1132443Y2975250D2*
X3767530D1*
X1179017Y2912083D2*
X3721043D1*
X1225503Y2848917D2*
X3674470D1*
X1272077Y2785750D2*
X3627893D1*
X1318653Y2722583D2*
X3581410D1*
X1365137Y2659417D2*
X3534833D1*
X1411713Y2596250D2*
X3488257D1*
X1458290Y2533083D2*
X3441773D1*
X1504773Y2469917D2*
X3395197D1*
X1551350Y2406750D2*
X3348623D1*
X1597923Y2343583D2*
X3302137D1*
X1644410Y2280417D2*
X3255563D1*
X1690983Y2217250D2*
X3208987D1*
X1737560Y2154083D2*
X3162503D1*
X1784043Y2090917D2*
X3115927D1*
X1830620Y2027750D2*
X3069353D1*
X1877103Y1964583D2*
X3022867D1*
X1923680Y1901417D2*
X2976293D1*
X1970253Y1838250D2*
X2929807D1*
X2016740Y1775083D2*
X2883233D1*
X2063313Y1711917D2*
X2836657D1*
X2109890Y1648750D2*
X2790173D1*
X2156373Y1585583D2*
X2743597D1*
X2202950Y1522417D2*
X2697020D1*
X2249527Y1459250D2*
X2650537D1*
X2296010Y1396083D2*
X2603960D1*
X2342587Y1332917D2*
X2557387D1*
X2389160Y1269750D2*
X2510900D1*
X2435647Y1206583D2*
X2464327D1*
X1139043Y18414290D2*
X1175777D1*
X1176017Y18432790D1*
X1178453Y18448180D1*
X1183267Y18462997D1*
X1190340Y18476880D1*
X1199500Y18489483D1*
X1287287Y18577703D1*
X1290057Y18580477D1*
X1291573Y18596133D1*
X1296523Y18616747D1*
X1304633Y18636330D1*
X1315710Y18654403D1*
X1329477Y18670523D1*
X1345597Y18684290D1*
X1363670Y18695367D1*
X1383253Y18703477D1*
X1403867Y18708427D1*
X1425000Y18710090D1*
X1446133Y18708427D1*
X1466747Y18703477D1*
X1477787Y18699303D1*
X1635663Y18699290D1*
X1635710Y18784290D1*
X1924290D1*
Y18484330D1*
X1955800Y18484290D1*
X1955710Y18784290D1*
X2244290D1*
Y18415710D1*
X2194800D1*
X2188467Y18399923D1*
X2180327Y18386640D1*
X2170187Y18374770D1*
X2114330Y18318913D1*
X2114290Y17959353D1*
X2164290Y17959290D1*
Y17775630D1*
X2830733Y18442150D1*
X2830710Y18669290D1*
X3169290D1*
Y18330710D1*
X3000213D1*
X2453617Y17784200D1*
X2471007Y17782637D1*
X2491497Y17777717D1*
X2510967Y17769653D1*
X2528933Y17758643D1*
X2540270Y17749290D1*
X2907790Y17748983D1*
X2923180Y17746547D1*
X2937997Y17741733D1*
X2951880Y17734660D1*
X2964483Y17725500D1*
X3052703Y17637713D1*
X3125500Y17564483D1*
X3134660Y17551880D1*
X3141733Y17537997D1*
X3146547Y17523180D1*
X3148983Y17507790D1*
X3149290Y17383333D1*
Y15991627D1*
X3159290Y15979403D1*
X3170367Y15961330D1*
X3178477Y15941747D1*
X3183427Y15921133D1*
X3185090Y15900000D1*
X3183427Y15878867D1*
X3178477Y15858253D1*
X3170367Y15838670D1*
X3159290Y15820597D1*
X3145523Y15804477D1*
X3139893Y15799273D1*
X3183423Y15799290D1*
X3195597Y15809290D1*
X3213670Y15820367D1*
X3233253Y15828477D1*
X3253867Y15833427D1*
X3275000Y15835090D1*
X3296133Y15833427D1*
X3316747Y15828477D1*
X3336330Y15820367D1*
X3354403Y15809290D1*
X3370523Y15795523D1*
X3384290Y15779403D1*
X3395367Y15761330D1*
X3403477Y15741747D1*
X3408427Y15721133D1*
X3410090Y15700000D1*
X3408427Y15678867D1*
X3403477Y15658253D1*
X3395367Y15638670D1*
X3384290Y15620597D1*
X3370523Y15604477D1*
X3354403Y15590710D1*
X3336330Y15579633D1*
X3316747Y15571523D1*
X3296133Y15566573D1*
X3275000Y15564910D1*
X3253867Y15566573D1*
X3233253Y15571523D1*
X3213670Y15579633D1*
X3195597Y15590710D1*
X3183523Y15600737D1*
X2942210Y15601017D1*
X2926820Y15603453D1*
X2912003Y15608267D1*
X2898120Y15615340D1*
X2885517Y15624500D1*
X2874500Y15635517D1*
X2865340Y15648120D1*
X2858267Y15662003D1*
X2853453Y15676820D1*
X2851017Y15692210D1*
X2850710Y15816667D1*
Y16934933D1*
X2837733Y16922277D1*
X2820583Y16909817D1*
X2801697Y16900193D1*
X2781537Y16893643D1*
X2760600Y16890327D1*
X2755507Y16890127D1*
X2499313Y16633897D1*
X2498983Y16242210D1*
X2496547Y16226820D1*
X2491733Y16212003D1*
X2484660Y16198120D1*
X2475500Y16185517D1*
X2387713Y16097297D1*
X2260037Y15969620D1*
X2258427Y15953867D1*
X2253477Y15933253D1*
X2245367Y15913670D1*
X2234290Y15895597D1*
X2220523Y15879477D1*
X2204403Y15865710D1*
X2186330Y15854633D1*
X2166747Y15846523D1*
X2146133Y15841573D1*
X2124297Y15839937D1*
X2124290Y15616160D1*
X2404633Y15336330D1*
X2415710Y15354403D1*
X2429477Y15370523D1*
X2445597Y15384290D1*
X2463670Y15395367D1*
X2483253Y15403477D1*
X2503867Y15408427D1*
X2525000Y15410090D1*
X2546133Y15408427D1*
X2566747Y15403477D1*
X2586330Y15395367D1*
X2604403Y15384290D1*
X2620523Y15370523D1*
X2634290Y15354403D1*
X2645367Y15336330D1*
X2653477Y15316747D1*
X2658427Y15296133D1*
X2660090Y15275000D1*
X2658427Y15253867D1*
X2653477Y15233253D1*
X2645367Y15213670D1*
X2634290Y15195597D1*
X2624263Y15183523D1*
X2624290Y14714727D1*
X2735517Y14825500D1*
X2748120Y14834660D1*
X2762003Y14841733D1*
X2776820Y14846547D1*
X2792210Y14848983D1*
X2916667Y14849290D1*
X2958867D1*
X3116117Y15006533D1*
X3114910Y15025000D1*
X3116573Y15046133D1*
X3121523Y15066747D1*
X3129633Y15086330D1*
X3140710Y15104403D1*
X3154477Y15120523D1*
X3170597Y15134290D1*
X3188670Y15145367D1*
X3208253Y15153477D1*
X3228867Y15158427D1*
X3250000Y15160090D1*
X3271133Y15158427D1*
X3291747Y15153477D1*
X3311330Y15145367D1*
X3329403Y15134290D1*
X3345523Y15120523D1*
X3359290Y15104403D1*
X3370367Y15086330D1*
X3378477Y15066747D1*
X3383427Y15046133D1*
X3385090Y15025000D1*
X3383427Y15003867D1*
X3378477Y14983253D1*
X3370367Y14963670D1*
X3359290Y14945597D1*
X3345523Y14929477D1*
X3329403Y14915710D1*
X3311330Y14904633D1*
X3291747Y14896523D1*
X3285087Y14894643D1*
X3064483Y14674500D1*
X3051880Y14665340D1*
X3037997Y14658267D1*
X3023180Y14653453D1*
X3007790Y14651017D1*
X2883333Y14650710D1*
X2841133D1*
X2699353Y14508933D1*
X2699290Y14016160D1*
X2766173Y13949243D1*
X3232790Y13948983D1*
X3248180Y13946547D1*
X3262997Y13941733D1*
X3276880Y13934660D1*
X3289483Y13925500D1*
X3377703Y13837713D1*
X3450500Y13764483D1*
X3459660Y13751880D1*
X3466733Y13737997D1*
X3471547Y13723180D1*
X3473983Y13707790D1*
X3474290Y13699970D1*
X3478207Y13687210D1*
X3625500Y13539483D1*
X3634660Y13526880D1*
X3641733Y13512997D1*
X3646547Y13498180D1*
X3648983Y13482790D1*
X3649290Y13358333D1*
X3648983Y13092210D1*
X3646547Y13076820D1*
X3641733Y13062003D1*
X3634660Y13048120D1*
X3625500Y13035517D1*
X3570210Y12979790D1*
X3558360Y12969673D1*
X3545077Y12961530D1*
X3530683Y12955570D1*
X3515533Y12951933D1*
X3499970Y12950710D1*
X2666107D1*
X2634947Y12919530D1*
X2633427Y12903867D1*
X2628477Y12883253D1*
X2620367Y12863670D1*
X2609290Y12845597D1*
X2595523Y12829477D1*
X2579403Y12815710D1*
X2561330Y12804633D1*
X2541747Y12796523D1*
X2521133Y12791573D1*
X2500000Y12789910D1*
X2478867Y12791573D1*
X2458253Y12796523D1*
X2438670Y12804633D1*
X2424283Y12813247D1*
X2424290Y12791653D1*
X2434290Y12779403D1*
X2445367Y12761330D1*
X2453477Y12741747D1*
X2458427Y12721133D1*
X2460090Y12700000D1*
X2458427Y12678867D1*
X2453477Y12658253D1*
X2445367Y12638670D1*
X2434290Y12620597D1*
X2420523Y12604477D1*
X2404403Y12590710D1*
X2386330Y12579633D1*
X2366747Y12571523D1*
X2346133Y12566573D1*
X2325000Y12564910D1*
X2303867Y12566573D1*
X2283253Y12571523D1*
X2263670Y12579633D1*
X2245597Y12590710D1*
X2229477Y12604477D1*
X2215710Y12620597D1*
X2204633Y12638670D1*
X2196523Y12658253D1*
X2191573Y12678867D1*
X2189910Y12700000D1*
X2191573Y12721133D1*
X2196523Y12741747D1*
X2204633Y12761330D1*
X2215710Y12779403D1*
X2225737Y12791477D1*
X2225710Y12883840D1*
X1899500Y13210517D1*
X1890340Y13223120D1*
X1883267Y13237003D1*
X1878453Y13251820D1*
X1876017Y13267210D1*
X1875710Y13391667D1*
Y14308867D1*
X1769510Y14415070D1*
X1753867Y14416573D1*
X1733253Y14421523D1*
X1713670Y14429633D1*
X1695597Y14440710D1*
X1679477Y14454477D1*
X1665710Y14470597D1*
X1654633Y14488670D1*
X1646523Y14508253D1*
X1641573Y14528867D1*
X1639910Y14550000D1*
X1641573Y14571133D1*
X1646523Y14591747D1*
X1654633Y14611330D1*
X1665710Y14629403D1*
X1679477Y14645523D1*
X1695597Y14659290D1*
X1713670Y14670367D1*
X1733253Y14678477D1*
X1753867Y14683427D1*
X1775000Y14685090D1*
X1796133Y14683427D1*
X1816747Y14678477D1*
X1836330Y14670367D1*
X1854403Y14659290D1*
X1870523Y14645523D1*
X1884290Y14629403D1*
X1895367Y14611330D1*
X1903477Y14591747D1*
X1908427Y14571133D1*
X1909873Y14555507D1*
X2000597Y14464820D1*
X2015053Y14478730D1*
X2036547Y14494343D1*
X2060217Y14506403D1*
X2085480Y14514613D1*
X2111717Y14518767D1*
X2138283D1*
X2164520Y14514613D1*
X2189783Y14506403D1*
X2213453Y14494343D1*
X2225690Y14486027D1*
X2225710Y14933920D1*
X1869573Y15290007D1*
X1853867Y15291573D1*
X1833253Y15296523D1*
X1813670Y15304633D1*
X1795597Y15315710D1*
X1779477Y15329477D1*
X1765710Y15345597D1*
X1754633Y15363670D1*
X1746523Y15383253D1*
X1741573Y15403867D1*
X1739910Y15425000D1*
X1741573Y15446133D1*
X1746523Y15466747D1*
X1754633Y15486330D1*
X1765710Y15504403D1*
X1779477Y15520523D1*
X1795597Y15534290D1*
X1813670Y15545367D1*
X1833253Y15553477D1*
X1853867Y15558427D1*
X1875000Y15560090D1*
X1896133Y15558427D1*
X1916747Y15553477D1*
X1929293Y15548610D1*
X1926017Y15567210D1*
X1925710Y15691667D1*
X1926017Y16682790D1*
X1928453Y16698180D1*
X1933267Y16712997D1*
X1940340Y16726880D1*
X1949500Y16739483D1*
X2037287Y16827703D1*
X2090070Y16880490D1*
X2091573Y16896133D1*
X2096523Y16916747D1*
X2104633Y16936330D1*
X2115710Y16954403D1*
X2129477Y16970523D1*
X2145597Y16984290D1*
X2163670Y16995367D1*
X2183253Y17003477D1*
X2203867Y17008427D1*
X2225000Y17010090D1*
X2246133Y17008427D1*
X2266747Y17003477D1*
X2286330Y16995367D1*
X2304403Y16984290D1*
X2320523Y16970523D1*
X2334290Y16954403D1*
X2345367Y16936330D1*
X2353477Y16916747D1*
X2358427Y16896133D1*
X2360090Y16875000D1*
X2358427Y16853867D1*
X2353477Y16833253D1*
X2345367Y16813670D1*
X2334290Y16795597D1*
X2320523Y16779477D1*
X2304403Y16765710D1*
X2286330Y16754633D1*
X2266747Y16746523D1*
X2246133Y16741573D1*
X2230507Y16740127D1*
X2124353Y16633933D1*
X2124290Y16114727D1*
X2300667Y16291083D1*
X2301017Y16682790D1*
X2303453Y16698180D1*
X2308267Y16712997D1*
X2315340Y16726880D1*
X2324500Y16739483D1*
X2412287Y16827703D1*
X2614983Y17030400D1*
X2616573Y17046133D1*
X2621523Y17066747D1*
X2629633Y17086330D1*
X2640710Y17104403D1*
X2654477Y17120523D1*
X2670597Y17134290D1*
X2688670Y17145367D1*
X2708253Y17153477D1*
X2728867Y17158427D1*
X2750000Y17160090D1*
X2771133Y17158427D1*
X2791747Y17153477D1*
X2811330Y17145367D1*
X2829403Y17134290D1*
X2845523Y17120523D1*
X2850727Y17114893D1*
X2850710Y17133817D1*
X2783827Y17200757D1*
X1717210Y17201017D1*
X1701820Y17203453D1*
X1687003Y17208267D1*
X1673120Y17215340D1*
X1660517Y17224500D1*
X1572297Y17312287D1*
X1319587Y17564993D1*
X1303867Y17566573D1*
X1283253Y17571523D1*
X1263670Y17579633D1*
X1245597Y17590710D1*
X1229477Y17604477D1*
X1215710Y17620597D1*
X1204633Y17638670D1*
X1196523Y17658253D1*
X1191573Y17678867D1*
X1189910Y17700000D1*
X1191573Y17721133D1*
X1196523Y17741747D1*
X1204633Y17761330D1*
X1215710Y17779403D1*
X1229477Y17795523D1*
X1245597Y17809290D1*
X1263670Y17820367D1*
X1283253Y17828477D1*
X1303867Y17833427D1*
X1325000Y17835090D1*
X1346133Y17833427D1*
X1366747Y17828477D1*
X1386330Y17820367D1*
X1404403Y17809290D1*
X1420523Y17795523D1*
X1434290Y17779403D1*
X1445367Y17761330D1*
X1453477Y17741747D1*
X1458427Y17721133D1*
X1459873Y17705507D1*
X1766117Y17399300D1*
X1869650Y17399290D1*
X1869710Y17640670D1*
X1865710Y17640710D1*
Y17935750D1*
X1695710Y17935710D1*
Y17975723D1*
X1666627Y17975710D1*
X1654403Y17965710D1*
X1636330Y17954633D1*
X1616747Y17946523D1*
X1596133Y17941573D1*
X1575000Y17939910D1*
X1553867Y17941573D1*
X1533253Y17946523D1*
X1513670Y17954633D1*
X1495597Y17965710D1*
X1479477Y17979477D1*
X1465710Y17995597D1*
X1454633Y18013670D1*
X1446523Y18033253D1*
X1441573Y18053867D1*
X1439910Y18075000D1*
X1441573Y18096133D1*
X1446523Y18116747D1*
X1454633Y18136330D1*
X1465710Y18154403D1*
X1479477Y18170523D1*
X1495597Y18184290D1*
X1513670Y18195367D1*
X1533253Y18203477D1*
X1553867Y18208427D1*
X1575000Y18210090D1*
X1596133Y18208427D1*
X1616747Y18203477D1*
X1636330Y18195367D1*
X1654403Y18184290D1*
X1666477Y18174263D1*
X1695767Y18174290D1*
X1695710Y18322467D1*
X1688267Y18337003D1*
X1683453Y18351820D1*
X1681017Y18367210D1*
X1680710Y18415743D1*
X1635710Y18415710D1*
Y18500750D1*
X1537827Y18500710D1*
X1527723Y18487267D1*
X1512733Y18472277D1*
X1495583Y18459817D1*
X1476697Y18450193D1*
X1456537Y18443643D1*
X1435600Y18440327D1*
X1430507Y18440127D1*
X1404650Y18414233D1*
X1434290Y18414290D1*
Y18115710D1*
X1115710D1*
Y18414290D1*
X1139043D1*
X2392710Y13449960D2*
X2394363Y13471007D1*
X2399283Y13491497D1*
X2407347Y13510967D1*
X2418357Y13528933D1*
X2423790Y13535823D1*
X2249500Y13710517D1*
X2240340Y13723120D1*
X2233267Y13737003D1*
X2228453Y13751820D1*
X2226017Y13767210D1*
X2225710Y13891667D1*
Y14213867D1*
X2201857Y14199160D1*
X2177313Y14188997D1*
X2151483Y14182793D1*
X2125000Y14180710D1*
X2098517Y14182793D1*
X2074337Y14188530D1*
X2074290Y13557670D1*
X2089400Y13559673D1*
X2110600D1*
X2131537Y13556357D1*
X2151697Y13549807D1*
X2170583Y13540183D1*
X2187733Y13527723D1*
X2202723Y13512733D1*
X2215183Y13495583D1*
X2224807Y13476697D1*
X2231357Y13456537D1*
X2234673Y13435600D1*
X2234873Y13430507D1*
X2416083Y13249333D1*
X2438163Y13249290D1*
X2424887Y13262787D1*
X2412500Y13279833D1*
X2402933Y13298610D1*
X2396420Y13318650D1*
X2393123Y13339463D1*
X2392710Y13420000D1*
Y13449817D1*
X2783137Y13486463D2*
X2786637Y13471007D1*
X2788290Y13450000D1*
X2787877Y13339463D1*
X2784580Y13318650D1*
X2778067Y13298610D1*
X2768500Y13279833D1*
X2756113Y13262787D1*
X2754467Y13261000D1*
X2766167Y13249253D1*
X3007643Y13249290D1*
X2999897Y13261733D1*
X2994837Y13273953D1*
X2993033Y13280347D1*
X2989923Y13286533D1*
X2976640Y13294673D1*
X2964790Y13304790D1*
X2783237Y13486347D1*
X2837843Y14435490D2*
X3135490D1*
Y14114510D1*
X2814510D1*
Y14435490D1*
X2837843D1*
X3745043Y15913210D2*
X3723600Y15914893D1*
X3702730Y15919903D1*
X3682900Y15928120D1*
X3664597Y15939333D1*
X3648273Y15953273D1*
X3634333Y15969597D1*
X3623120Y15987900D1*
X3614903Y16007730D1*
X3609893Y16028600D1*
X3608210Y16050000D1*
X3609893Y16071400D1*
X3614903Y16092270D1*
X3623343Y16112503D1*
X3614903Y16132730D1*
X3609893Y16153600D1*
X3608210Y16175000D1*
X3609893Y16196400D1*
X3614903Y16217270D1*
X3623120Y16237100D1*
X3634333Y16255403D1*
X3648273Y16271727D1*
X3664597Y16285667D1*
X3682900Y16296880D1*
X3702730Y16305097D1*
X3723600Y16310107D1*
X3745043Y16311790D1*
X3765733Y16311367D1*
X3786933Y16308010D1*
X3807347Y16301377D1*
X3818237Y16296247D1*
X3818250Y18031340D1*
X3814613Y18010480D1*
X3806403Y17985217D1*
X3794343Y17961547D1*
X3778730Y17940053D1*
X3759947Y17921270D1*
X3738453Y17905657D1*
X3714783Y17893597D1*
X3689520Y17885387D1*
X3663283Y17881233D1*
X3636717D1*
X3610480Y17885387D1*
X3585217Y17893597D1*
X3561547Y17905657D1*
X3540053Y17921270D1*
X3521270Y17940053D1*
X3505657Y17961547D1*
X3493597Y17985217D1*
X3485387Y18010480D1*
X3481233Y18036717D1*
Y18063283D1*
X3485387Y18089520D1*
X3493597Y18114783D1*
X3505657Y18138453D1*
X3521270Y18159947D1*
X3540053Y18178730D1*
X3561547Y18194343D1*
X3585217Y18206403D1*
X3610480Y18214613D1*
X3636717Y18218767D1*
X3663283D1*
X3689520Y18214613D1*
X3714783Y18206403D1*
X3738453Y18194343D1*
X3759947Y18178730D1*
X3778730Y18159947D1*
X3794343Y18138453D1*
X3806403Y18114783D1*
X3814613Y18089520D1*
X3818250Y18067667D1*
Y18481237D1*
X3814613Y18460480D1*
X3806403Y18435217D1*
X3794343Y18411547D1*
X3778730Y18390053D1*
X3759947Y18371270D1*
X3738453Y18355657D1*
X3714783Y18343597D1*
X3689520Y18335387D1*
X3663283Y18331233D1*
X3636717D1*
X3610480Y18335387D1*
X3585217Y18343597D1*
X3561547Y18355657D1*
X3540053Y18371270D1*
X3521270Y18390053D1*
X3505657Y18411547D1*
X3493597Y18435217D1*
X3485387Y18460480D1*
X3481233Y18486717D1*
Y18513283D1*
X3485387Y18539520D1*
X3493597Y18564783D1*
X3505657Y18588453D1*
X3521270Y18609947D1*
X3540053Y18628730D1*
X3561547Y18644343D1*
X3585217Y18656403D1*
X3610480Y18664613D1*
X3636717Y18668767D1*
X3663283D1*
X3689520Y18664613D1*
X3714783Y18656403D1*
X3738453Y18644343D1*
X3759947Y18628730D1*
X3778730Y18609947D1*
X3794343Y18588453D1*
X3806403Y18564783D1*
X3814613Y18539520D1*
X3818250Y18517667D1*
Y18893217D1*
X1081810Y18893250D1*
X1081750Y14165273D1*
X1090710Y14179403D1*
X1104477Y14195523D1*
X1120597Y14209290D1*
X1138670Y14220367D1*
X1158253Y14228477D1*
X1178867Y14233427D1*
X1194493Y14234873D1*
X1250763Y14291180D1*
X1250710Y15283320D1*
X1240710Y15295597D1*
X1229633Y15313670D1*
X1221523Y15333253D1*
X1216573Y15353867D1*
X1214910Y15375000D1*
X1216573Y15396133D1*
X1221523Y15416747D1*
X1229633Y15436330D1*
X1240710Y15454403D1*
X1254477Y15470523D1*
X1270597Y15484290D1*
X1288670Y15495367D1*
X1308253Y15503477D1*
X1328867Y15508427D1*
X1350000Y15510090D1*
X1371133Y15508427D1*
X1391747Y15503477D1*
X1411330Y15495367D1*
X1429403Y15484290D1*
X1445523Y15470523D1*
X1459290Y15454403D1*
X1470367Y15436330D1*
X1478477Y15416747D1*
X1483427Y15396133D1*
X1485090Y15375000D1*
X1483427Y15353867D1*
X1478477Y15333253D1*
X1470367Y15313670D1*
X1459290Y15295597D1*
X1449263Y15283523D1*
X1449290Y14517410D1*
X1475000Y14519290D1*
X1501483Y14517207D1*
X1527313Y14511003D1*
X1551857Y14500840D1*
X1574507Y14486960D1*
X1594707Y14469707D1*
X1611960Y14449507D1*
X1625840Y14426857D1*
X1636003Y14402313D1*
X1642207Y14376483D1*
X1644290Y14350000D1*
X1642207Y14323517D1*
X1636003Y14297687D1*
X1625840Y14273143D1*
X1611960Y14250493D1*
X1594707Y14230293D1*
X1574507Y14213040D1*
X1551857Y14199160D1*
X1527313Y14188997D1*
X1501483Y14182793D1*
X1475000Y14180710D1*
X1448517Y14182793D1*
X1427333Y14187683D1*
X1403710Y14163293D1*
X1334940Y14094523D1*
X1333427Y14078867D1*
X1328477Y14058253D1*
X1320367Y14038670D1*
X1309290Y14020597D1*
X1295523Y14004477D1*
X1279403Y13990710D1*
X1261330Y13979633D1*
X1241747Y13971523D1*
X1221133Y13966573D1*
X1200000Y13964910D1*
X1178867Y13966573D1*
X1158253Y13971523D1*
X1138670Y13979633D1*
X1120597Y13990710D1*
X1104477Y14004477D1*
X1090710Y14020597D1*
X1081760Y14034873D1*
X1081750Y3035457D1*
X2450013Y1178507D1*
X3818250Y3035433D1*
Y15928790D1*
X3807347Y15923623D1*
X3786933Y15916990D1*
X3765733Y15913633D1*
X3745000Y15913300D1*
X2188290Y17518833D2*
Y17399250D1*
X2832790Y17398983D1*
X2848180Y17396547D1*
X2862997Y17391733D1*
X2876880Y17384660D1*
X2889483Y17375500D1*
X2950700Y17314717D1*
X2950710Y17458867D1*
X2858820Y17550763D1*
X2540430Y17550710D1*
X2528933Y17541357D1*
X2510967Y17530347D1*
X2491497Y17522283D1*
X2471007Y17517363D1*
X2450000Y17515710D1*
X2428993Y17517363D1*
X2408503Y17522283D1*
X2389033Y17530347D1*
X2371067Y17541357D1*
X2355043Y17555043D1*
X2341357Y17571067D1*
X2330347Y17589033D1*
X2322283Y17608503D1*
X2317363Y17628993D1*
X2315850Y17646420D1*
X2188343Y17518923D1*
X3168767Y18036717D2*
X3164613Y18010480D1*
X3156403Y17985217D1*
X3144343Y17961547D1*
X3128730Y17940053D1*
X3109947Y17921270D1*
X3088453Y17905657D1*
X3064783Y17893597D1*
X3039520Y17885387D1*
X3013283Y17881233D1*
X2986717D1*
X2960480Y17885387D1*
X2935217Y17893597D1*
X2911547Y17905657D1*
X2890053Y17921270D1*
X2871270Y17940053D1*
X2855657Y17961547D1*
X2843597Y17985217D1*
X2835387Y18010480D1*
X2831233Y18036717D1*
Y18063283D1*
X2835387Y18089520D1*
X2843597Y18114783D1*
X2855657Y18138453D1*
X2871270Y18159947D1*
X2890053Y18178730D1*
X2911547Y18194343D1*
X2935217Y18206403D1*
X2960480Y18214613D1*
X2986717Y18218767D1*
X3013283D1*
X3039520Y18214613D1*
X3064783Y18206403D1*
X3088453Y18194343D1*
X3109947Y18178730D1*
X3128730Y18159947D1*
X3144343Y18138453D1*
X3156403Y18114783D1*
X3164613Y18089520D1*
X3168767Y18063283D1*
Y18036717D1*
X2007173Y15452433D2*
X2009673Y15435600D1*
X2009873Y15430507D1*
X2325657Y15114760D1*
X2325710Y15133920D1*
X2007343Y15452240D1*
X2359673Y12214400D2*
X2356357Y12193463D1*
X2349807Y12173303D1*
X2340183Y12154417D1*
X2327723Y12137267D1*
X2312733Y12122277D1*
X2295583Y12109817D1*
X2276697Y12100193D1*
X2256537Y12093643D1*
X2235600Y12090327D1*
X2214400D1*
X2193463Y12093643D1*
X2173303Y12100193D1*
X2154417Y12109817D1*
X2137267Y12122277D1*
X2122277Y12137267D1*
X2109817Y12154417D1*
X2100193Y12173303D1*
X2093643Y12193463D1*
X2090327Y12214400D1*
Y12235600D1*
X2093643Y12256537D1*
X2100193Y12276697D1*
X2109817Y12295583D1*
X2122277Y12312733D1*
X2137267Y12327723D1*
X2154417Y12340183D1*
X2173303Y12349807D1*
X2193463Y12356357D1*
X2214400Y12359673D1*
X2235600D1*
X2256537Y12356357D1*
X2276697Y12349807D1*
X2295583Y12340183D1*
X2312733Y12327723D1*
X2327723Y12312733D1*
X2340183Y12295583D1*
X2349807Y12276697D1*
X2356357Y12256537D1*
X2359673Y12235600D1*
Y12214400D1*
X2834673Y12014400D2*
X2831357Y11993463D1*
X2824807Y11973303D1*
X2815183Y11954417D1*
X2802723Y11937267D1*
X2799263Y11933523D1*
X2798983Y8097210D1*
X2796547Y8081820D1*
X2791733Y8067003D1*
X2784660Y8053120D1*
X2775500Y8040517D1*
X2714977Y7979557D1*
X2713427Y7963867D1*
X2708477Y7943253D1*
X2700367Y7923670D1*
X2689290Y7905597D1*
X2675523Y7889477D1*
X2659403Y7875710D1*
X2641330Y7864633D1*
X2621747Y7856523D1*
X2601133Y7851573D1*
X2580000Y7849910D1*
X2558867Y7851573D1*
X2538253Y7856523D1*
X2518670Y7864633D1*
X2500597Y7875710D1*
X2484477Y7889477D1*
X2470710Y7905597D1*
X2459633Y7923670D1*
X2451523Y7943253D1*
X2446573Y7963867D1*
X2444910Y7985000D1*
X2446573Y8006133D1*
X2451523Y8026747D1*
X2459633Y8046330D1*
X2470710Y8064403D1*
X2484477Y8080523D1*
X2500597Y8094290D1*
X2518670Y8105367D1*
X2538253Y8113477D1*
X2558867Y8118427D1*
X2574493Y8119873D1*
X2600730Y8146147D1*
X2600710Y11933400D1*
X2590710Y11945597D1*
X2579633Y11963670D1*
X2571523Y11983253D1*
X2566573Y12003867D1*
X2564927Y12024543D1*
X2364483Y11824500D1*
X2351880Y11815340D1*
X2337997Y11808267D1*
X2323180Y11803453D1*
X2307790Y11801017D1*
X2183333Y11800710D1*
X1851107D1*
X1694270Y11643853D1*
X1694290Y6016367D1*
X1707723Y6002733D1*
X1720183Y5985583D1*
X1729807Y5966697D1*
X1736357Y5946537D1*
X1739673Y5925600D1*
Y5904400D1*
X1736357Y5883463D1*
X1729807Y5863303D1*
X1720183Y5844417D1*
X1707723Y5827267D1*
X1694287Y5813710D1*
X1694290Y4245663D1*
X1724923Y4235070D1*
X1746243Y4225603D1*
X1766853Y4214673D1*
X1786647Y4202330D1*
X1805537Y4188637D1*
X1823423Y4173660D1*
X1840220Y4157473D1*
X1855850Y4140153D1*
X1870230Y4121787D1*
X1883297Y4102460D1*
X1894983Y4082270D1*
X1905233Y4061313D1*
X1914000Y4039693D1*
X1921233Y4017517D1*
X1926903Y3994887D1*
X1930980Y3971917D1*
X1933447Y3948720D1*
X1934290Y3925000D1*
X1933477Y3901687D1*
X1931037Y3878483D1*
X1926987Y3855510D1*
X1921347Y3832873D1*
X1914137Y3810687D1*
X1905400Y3789057D1*
X1895177Y3768087D1*
X1883513Y3747883D1*
X1870470Y3728543D1*
X1856110Y3710157D1*
X1840503Y3692820D1*
X1823723Y3676610D1*
X1805857Y3661613D1*
X1786983Y3647897D1*
X1767203Y3635530D1*
X1746607Y3624573D1*
X1725300Y3615080D1*
X1703380Y3607097D1*
X1680957Y3600660D1*
X1658137Y3595803D1*
X1635037Y3592550D1*
X1611767Y3590917D1*
X1588437Y3590910D1*
X1565163Y3592530D1*
X1542063Y3595770D1*
X1519243Y3600610D1*
X1496813Y3607033D1*
X1474890Y3615003D1*
X1453573Y3624483D1*
X1432973Y3635430D1*
X1413183Y3647783D1*
X1394303Y3661487D1*
X1376427Y3676473D1*
X1359640Y3692673D1*
X1344020Y3710000D1*
X1329650Y3728377D1*
X1316593Y3747713D1*
X1304920Y3767910D1*
X1294683Y3788870D1*
X1285933Y3810497D1*
X1278710Y3832680D1*
X1273053Y3855313D1*
X1268990Y3878283D1*
X1266537Y3901483D1*
X1265710Y3924797D1*
X1266510Y3948113D1*
X1268933Y3971313D1*
X1272970Y3994290D1*
X1278600Y4016930D1*
X1285793Y4039123D1*
X1294517Y4060757D1*
X1304730Y4081733D1*
X1316380Y4101943D1*
X1329410Y4121293D1*
X1343760Y4139687D1*
X1359357Y4157037D1*
X1376127Y4173253D1*
X1393983Y4188263D1*
X1412847Y4201990D1*
X1432620Y4214367D1*
X1453210Y4225337D1*
X1474513Y4234843D1*
X1495657Y4242560D1*
X1495710Y5835597D1*
X1484633Y5853670D1*
X1476523Y5873253D1*
X1471573Y5893867D1*
X1469910Y5915000D1*
X1471573Y5936133D1*
X1476523Y5956747D1*
X1484633Y5976330D1*
X1495737Y5994437D1*
X1496017Y11692790D1*
X1498453Y11708180D1*
X1503267Y11722997D1*
X1510340Y11736880D1*
X1519500Y11749483D1*
X1607287Y11837703D1*
X1745517Y11975500D1*
X1758120Y11984660D1*
X1772003Y11991733D1*
X1786820Y11996547D1*
X1802210Y11998983D1*
X1926667Y11999290D1*
X2258893D1*
X2875517Y12615500D1*
X2888120Y12624660D1*
X2902003Y12631733D1*
X2916820Y12636547D1*
X2932210Y12638983D1*
X3056667Y12639290D1*
X3103423D1*
X3115597Y12649290D1*
X3133670Y12660367D1*
X3153253Y12668477D1*
X3173867Y12673427D1*
X3195000Y12675090D1*
X3216133Y12673427D1*
X3236747Y12668477D1*
X3256330Y12660367D1*
X3274403Y12649290D1*
X3290523Y12635523D1*
X3304290Y12619403D1*
X3315367Y12601330D1*
X3323477Y12581747D1*
X3328427Y12561133D1*
X3329880Y12545340D1*
X3375517Y12590500D1*
X3388120Y12599660D1*
X3402003Y12606733D1*
X3416820Y12611547D1*
X3432210Y12613983D1*
X3493320Y12614290D1*
X3505597Y12624290D1*
X3523670Y12635367D1*
X3543253Y12643477D1*
X3563867Y12648427D1*
X3585000Y12650090D1*
X3606133Y12648427D1*
X3626747Y12643477D1*
X3646330Y12635367D1*
X3664403Y12624290D1*
X3680523Y12610523D1*
X3694290Y12594403D1*
X3705367Y12576330D1*
X3713477Y12556747D1*
X3718427Y12536133D1*
X3720090Y12515000D1*
X3718427Y12493867D1*
X3713477Y12473253D1*
X3705367Y12453670D1*
X3694290Y12435597D1*
X3680523Y12419477D1*
X3664403Y12405710D1*
X3646330Y12394633D1*
X3626747Y12386523D1*
X3606133Y12381573D1*
X3585000Y12379910D1*
X3563867Y12381573D1*
X3543253Y12386523D1*
X3523670Y12394633D1*
X3505597Y12405710D1*
X3493523Y12415737D1*
X3481183Y12415710D1*
X3474310Y12408893D1*
X3474290Y6055483D1*
X3485523Y6045523D1*
X3499290Y6029403D1*
X3510367Y6011330D1*
X3518477Y5991747D1*
X3523427Y5971133D1*
X3525090Y5950000D1*
X3523427Y5928867D1*
X3518477Y5908253D1*
X3510367Y5888670D1*
X3499290Y5870597D1*
X3485523Y5854477D1*
X3474317Y5844583D1*
X3474290Y4235273D1*
X3496243Y4225603D1*
X3516853Y4214673D1*
X3536647Y4202330D1*
X3555537Y4188637D1*
X3573423Y4173660D1*
X3590220Y4157473D1*
X3605850Y4140153D1*
X3620230Y4121787D1*
X3633297Y4102460D1*
X3644983Y4082270D1*
X3655233Y4061313D1*
X3664000Y4039693D1*
X3671233Y4017517D1*
X3676903Y3994887D1*
X3680980Y3971917D1*
X3683447Y3948720D1*
X3684290Y3925000D1*
X3683477Y3901687D1*
X3681037Y3878483D1*
X3676987Y3855510D1*
X3671347Y3832873D1*
X3664137Y3810687D1*
X3655400Y3789057D1*
X3645177Y3768087D1*
X3633513Y3747883D1*
X3620470Y3728543D1*
X3606110Y3710157D1*
X3590503Y3692820D1*
X3573723Y3676610D1*
X3555857Y3661613D1*
X3536983Y3647897D1*
X3517203Y3635530D1*
X3496607Y3624573D1*
X3475300Y3615080D1*
X3453380Y3607097D1*
X3430957Y3600660D1*
X3408137Y3595803D1*
X3385037Y3592550D1*
X3361767Y3590917D1*
X3338437Y3590910D1*
X3315163Y3592530D1*
X3292063Y3595770D1*
X3269243Y3600610D1*
X3246813Y3607033D1*
X3224890Y3615003D1*
X3203573Y3624483D1*
X3182973Y3635430D1*
X3163183Y3647783D1*
X3144303Y3661487D1*
X3126427Y3676473D1*
X3109640Y3692673D1*
X3094020Y3710000D1*
X3079650Y3728377D1*
X3066593Y3747713D1*
X3054920Y3767910D1*
X3044683Y3788870D1*
X3035933Y3810497D1*
X3028710Y3832680D1*
X3023053Y3855313D1*
X3018990Y3878283D1*
X3016537Y3901483D1*
X3015710Y3924797D1*
X3016510Y3948113D1*
X3018933Y3971313D1*
X3022970Y3994290D1*
X3028600Y4016930D1*
X3035793Y4039123D1*
X3044517Y4060757D1*
X3054730Y4081733D1*
X3066380Y4101943D1*
X3079410Y4121293D1*
X3093760Y4139687D1*
X3109357Y4157037D1*
X3126127Y4173253D1*
X3143983Y4188263D1*
X3162847Y4201990D1*
X3182620Y4214367D1*
X3203210Y4225337D1*
X3224513Y4234843D1*
X3246430Y4242840D1*
X3275710Y4250757D1*
Y5878060D1*
X3269633Y5888670D1*
X3261523Y5908253D1*
X3256573Y5928867D1*
X3254910Y5950000D1*
X3256573Y5971133D1*
X3261523Y5991747D1*
X3269633Y6011330D1*
X3275713Y6021927D1*
X3275710Y12431653D1*
X3256330Y12419633D1*
X3236747Y12411523D1*
X3216133Y12406573D1*
X3195000Y12404910D1*
X3173867Y12406573D1*
X3153253Y12411523D1*
X3133670Y12419633D1*
X3115597Y12430710D1*
X3103523Y12440737D1*
X2981080Y12440710D1*
X2700527Y12160110D1*
X2721133Y12158427D1*
X2741747Y12153477D1*
X2761330Y12145367D1*
X2779403Y12134290D1*
X2795523Y12120523D1*
X2809290Y12104403D1*
X2820367Y12086330D1*
X2828477Y12066747D1*
X2833427Y12046133D1*
X2835090Y12025000D1*
X2834673Y12014400D1*
X2388847Y13001613D2*
X2397277Y13012733D1*
X2412267Y13027723D1*
X2429417Y13040183D1*
X2448303Y13049807D1*
X2450753Y13050710D1*
X2367210Y13051017D1*
X2351820Y13053453D1*
X2337003Y13058267D1*
X2329897Y13061547D1*
X2358693Y13031723D1*
X2388790Y13001627D1*
X3149973Y13559290D2*
X3163187Y13558253D1*
X3176047Y13555163D1*
X3188267Y13550103D1*
X3194063Y13546857D1*
X3220650Y13555580D1*
X3241463Y13558877D1*
X3262537D1*
X3283350Y13555580D1*
X3303390Y13549067D1*
X3315447Y13543263D1*
X3333367Y13551193D1*
X3299500Y13585517D1*
X3290340Y13598120D1*
X3283267Y13612003D1*
X3278453Y13626820D1*
X3276017Y13642210D1*
X3275710Y13650030D1*
X3271793Y13662790D1*
X3183820Y13750763D1*
X2799623Y13750710D1*
X3028120Y13522300D1*
X3045257Y13539093D1*
X3055960Y13546870D1*
X3067743Y13552873D1*
X3080323Y13556960D1*
X3093387Y13559030D1*
X3149753Y13559290D1*
D18*
X1275000Y18075000D3*
Y18265000D3*
D19*
X1825000Y17800000D3*
X2015000D3*
D94*
X2400000Y13400000D3*
D27*
X2527000D3*
X2654000D3*
D28*
X2975000Y14275000D3*
D29*
X2721000D3*
D30*
X3750000Y15925000D3*
D31*
Y16050000D3*
Y16175000D3*
D32*
X2029000Y17500000D3*
D33*
X1775000D3*
D35*
X2000000Y18075000D3*
X1905000D3*
X1810000D3*
Y18345000D3*
X2000000D3*
D36*
X2125000Y13900000D3*
D37*
Y14350000D3*
X1475000D3*
Y13900000D3*
D36*
X3000000Y18500000D3*
D37*
Y18050000D3*
X3650000D3*
Y18500000D3*
D38*
X2100000Y18600000D3*
X1780000D3*
D94*
X3125000Y13375000D3*
D27*
X3252000D3*
X3379000D3*
D39*
X1600000Y3925000D3*
X3350000D3*
M02*
