G04 DipTrace 3.0.0.1*
G04 Вехнийразмер.gbr*
%MOMM*%
G04 #@! TF.FileFunction,Drawing,Top*
G04 #@! TF.Part,Single*
%ADD12C,0.03125*%
%ADD92C,0.15686*%
%FSLAX35Y35*%
G04*
G71*
G90*
G75*
G01*
G04 TopDimension*
%LPD*%
X3950000Y19000000D2*
D12*
X5550000D1*
X2450000Y1000000D2*
X5550000D1*
X5500000Y10000000D2*
Y18900000D1*
G36*
Y19000000D2*
X5520000Y18900000D1*
X5480000D1*
X5500000Y19000000D1*
G37*
Y10000000D2*
D12*
Y1100000D1*
G36*
Y1000000D2*
X5480000Y1100000D1*
X5520000D1*
X5500000Y1000000D1*
G37*
X3950000Y18725000D2*
D12*
X5000000D1*
X4350000Y2725000D2*
X5000000D1*
X4950000Y10725000D2*
Y18625000D1*
G36*
Y18725000D2*
X4970000Y18625000D1*
X4930000D1*
X4950000Y18725000D1*
G37*
Y10725000D2*
D12*
Y2825000D1*
G36*
Y2725000D2*
X4930000Y2825000D1*
X4970000D1*
X4950000Y2725000D1*
G37*
X3950000Y3000000D2*
D12*
Y3375000D1*
X2450000Y2625000D2*
Y3375000D1*
X3200000Y3325000D2*
X3850000D1*
G36*
X3950000D2*
X3850000Y3305000D1*
Y3345000D1*
X3950000Y3325000D1*
G37*
X3200000D2*
D12*
X2550000D1*
G36*
X2450000D2*
X2550000Y3345000D1*
Y3305000D1*
X2450000Y3325000D1*
G37*
X2200000Y7750000D2*
D12*
Y9100000D1*
X2700000Y7750000D2*
Y9100000D1*
X2450000Y9050000D2*
X2300000D1*
G36*
X2200000D2*
X2300000Y9070000D1*
Y9030000D1*
X2200000Y9050000D1*
G37*
X2450000D2*
D12*
X2600000D1*
G36*
X2700000D2*
X2600000Y9030000D1*
Y9070000D1*
X2700000Y9050000D1*
G37*
X2200000Y7750000D2*
D12*
X950000D1*
X2000000Y2750000D2*
X950000D1*
X1000000Y5250000D2*
Y7650000D1*
G36*
Y7750000D2*
X1020000Y7650000D1*
X980000D1*
X1000000Y7750000D1*
G37*
Y5250000D2*
D12*
Y2850000D1*
G36*
Y2750000D2*
X980000Y2850000D1*
X1020000D1*
X1000000Y2750000D1*
G37*
X2200000Y7750000D2*
D12*
Y7850000D1*
X2450000Y7900000D2*
Y7750000D1*
X2200000Y7800000D2*
X2450000D1*
X2050000D2*
X2100000D1*
G36*
X2200000D2*
X2100000Y7780000D1*
Y7820000D1*
X2200000Y7800000D1*
G37*
X2600000D2*
D12*
X2550000D1*
G36*
X2450000D2*
X2550000Y7820000D1*
Y7780000D1*
X2450000Y7800000D1*
G37*
X2200000Y7750000D2*
D12*
X2050000D1*
X2200000Y7500000D2*
X2050000D1*
X2100000Y7750000D2*
Y7500000D1*
Y7900000D2*
Y7850000D1*
G36*
Y7750000D2*
X2080000Y7850000D1*
X2120000D1*
X2100000Y7750000D1*
G37*
Y7350000D2*
D12*
Y7400000D1*
G36*
Y7500000D2*
X2120000Y7400000D1*
X2080000D1*
X2100000Y7500000D1*
G37*
X2700000Y7750000D2*
D12*
X2975000D1*
X2700000Y7500000D2*
X2975000D1*
X2925000Y7750000D2*
Y7500000D1*
Y7900000D2*
Y7850000D1*
G36*
Y7750000D2*
X2905000Y7850000D1*
X2945000D1*
X2925000Y7750000D1*
G37*
Y7350000D2*
D12*
Y7400000D1*
G36*
Y7500000D2*
X2945000Y7400000D1*
X2905000D1*
X2925000Y7500000D1*
G37*
X2200000Y2750000D2*
D12*
X3375000D1*
X2850000Y3000000D2*
X3375000D1*
X3325000D2*
Y2750000D1*
Y3150000D2*
Y3100000D1*
G36*
Y3000000D2*
X3305000Y3100000D1*
X3345000D1*
X3325000Y3000000D1*
G37*
Y2600000D2*
D12*
Y2650000D1*
G36*
Y2750000D2*
X3345000Y2650000D1*
X3305000D1*
X3325000Y2750000D1*
G37*
X2200000D2*
D12*
Y2300000D1*
X2450000Y2750000D2*
Y2300000D1*
X2200000Y2350000D2*
X2450000D1*
X2050000D2*
X2100000D1*
G36*
X2200000D2*
X2100000Y2330000D1*
Y2370000D1*
X2200000Y2350000D1*
G37*
X2600000D2*
D12*
X2550000D1*
G36*
X2450000D2*
X2550000Y2370000D1*
Y2330000D1*
X2450000Y2350000D1*
G37*
X2200000Y2750000D2*
D12*
Y2975000D1*
X1900000Y2750000D2*
Y2975000D1*
Y2925000D2*
X2200000D1*
X1750000D2*
X1800000D1*
G36*
X1900000D2*
X1800000Y2905000D1*
Y2945000D1*
X1900000Y2925000D1*
G37*
X2350000D2*
D12*
X2300000D1*
G36*
X2200000D2*
X2300000Y2945000D1*
Y2905000D1*
X2200000Y2925000D1*
G37*
X2700000Y2750000D2*
D12*
Y2975000D1*
X3000000Y2750000D2*
Y2975000D1*
X2700000Y2925000D2*
X3000000D1*
X2550000D2*
X2600000D1*
G36*
X2700000D2*
X2600000Y2905000D1*
Y2945000D1*
X2700000Y2925000D1*
G37*
X3150000D2*
D12*
X3100000D1*
G36*
X3000000D2*
X3100000Y2945000D1*
Y2905000D1*
X3000000Y2925000D1*
G37*
X2450000Y3075000D2*
D12*
Y3375000D1*
X950000Y3325000D2*
Y3375000D1*
X1700000Y3325000D2*
X2350000D1*
G36*
X2450000D2*
X2350000Y3305000D1*
Y3345000D1*
X2450000Y3325000D1*
G37*
X1700000D2*
D12*
X1050000D1*
G36*
X950000D2*
X1050000Y3345000D1*
Y3305000D1*
X950000Y3325000D1*
G37*
X1075000D2*
D12*
X4525000D1*
X1150000Y3925000D2*
X4525000D1*
X4475000Y3625000D2*
Y3425000D1*
G36*
Y3325000D2*
X4455000Y3425000D1*
X4495000D1*
X4475000Y3325000D1*
G37*
Y3625000D2*
D12*
Y3825000D1*
G36*
Y3925000D2*
X4495000Y3825000D1*
X4455000D1*
X4475000Y3925000D1*
G37*
X1000000Y3325000D2*
D12*
Y4825000D1*
X1600000Y3850000D2*
Y4825000D1*
X1300000Y4775000D2*
X1100000D1*
G36*
X1000000D2*
X1100000Y4795000D1*
Y4755000D1*
X1000000Y4775000D1*
G37*
X1300000D2*
D12*
X1500000D1*
G36*
X1600000D2*
X1500000Y4755000D1*
Y4795000D1*
X1600000Y4775000D1*
G37*
X3950000Y3325000D2*
D12*
Y4325000D1*
X3350000Y4200000D2*
Y4325000D1*
X3650000Y4275000D2*
X3850000D1*
G36*
X3950000D2*
X3850000Y4255000D1*
Y4295000D1*
X3950000Y4275000D1*
G37*
X3650000D2*
D12*
X3450000D1*
G36*
X3350000D2*
X3450000Y4295000D1*
Y4255000D1*
X3350000Y4275000D1*
G37*
X2350000Y11825000D2*
D12*
Y11975000D1*
X2450000Y11825000D2*
Y11975000D1*
X2350000Y11925000D2*
X2450000D1*
X2200000D2*
X2250000D1*
G36*
X2350000D2*
X2250000Y11905000D1*
Y11945000D1*
X2350000Y11925000D1*
G37*
X2600000D2*
D12*
X2550000D1*
G36*
X2450000D2*
X2550000Y11945000D1*
Y11905000D1*
X2450000Y11925000D1*
G37*
X2574371D2*
D12*
X2450000D1*
X2500000Y11825000D2*
Y12005000D1*
X2600000Y11815000D2*
Y12005000D1*
X2500000Y11955000D2*
X2600000D1*
X2350000D2*
X2400000D1*
G36*
X2500000D2*
X2400000Y11935000D1*
Y11975000D1*
X2500000Y11955000D1*
G37*
X2750000D2*
D12*
X2700000D1*
G36*
X2600000D2*
X2700000Y11975000D1*
Y11935000D1*
X2600000Y11955000D1*
G37*
X2724371D2*
D12*
X2600000D1*
X5613561Y10103717D2*
D92*
X5618503Y10093946D1*
X5632991Y10079346D1*
X5531015D1*
X5632991Y10023715D2*
X5628161Y10038203D1*
X5618503Y10043145D1*
X5608732D1*
X5599074Y10038203D1*
X5594132Y10028545D1*
X5589303Y10009115D1*
X5584474Y9994515D1*
X5574703Y9984857D1*
X5565045Y9980028D1*
X5550445D1*
X5540786Y9984857D1*
X5535845Y9989686D1*
X5531015Y10004286D1*
Y10023715D1*
X5535845Y10038203D1*
X5540786Y10043145D1*
X5550445Y10047974D1*
X5565045D1*
X5574703Y10043145D1*
X5584474Y10033374D1*
X5589303Y10018886D1*
X5594132Y9999457D1*
X5599074Y9989686D1*
X5608732Y9984857D1*
X5618503D1*
X5628161Y9989686D1*
X5632991Y10004286D1*
Y10023715D1*
Y9919455D2*
X5628161Y9934055D1*
X5613561Y9943826D1*
X5589303Y9948655D1*
X5574703D1*
X5550445Y9943826D1*
X5535845Y9934055D1*
X5531015Y9919455D1*
Y9909797D1*
X5535845Y9895197D1*
X5550445Y9885538D1*
X5574703Y9880597D1*
X5589303D1*
X5613561Y9885538D1*
X5628161Y9895197D1*
X5632991Y9909797D1*
Y9919455D1*
X5613561Y9885538D2*
X5550445Y9943826D1*
X5063561Y10826302D2*
X5068503Y10816532D1*
X5082991Y10801932D1*
X4981015D1*
X5068503Y10712271D2*
X5078161Y10717101D1*
X5082991Y10731701D1*
Y10741359D1*
X5078161Y10755959D1*
X5063561Y10765730D1*
X5039303Y10770559D1*
X5015045D1*
X4995615Y10765730D1*
X4985845Y10755959D1*
X4981015Y10741359D1*
Y10736530D1*
X4985845Y10722042D1*
X4995615Y10712271D1*
X5010215Y10707442D1*
X5015045D1*
X5029645Y10712271D1*
X5039303Y10722042D1*
X5044132Y10736530D1*
Y10741359D1*
X5039303Y10755959D1*
X5029645Y10765730D1*
X5015045Y10770559D1*
X5082991Y10646870D2*
X5078161Y10661470D1*
X5063561Y10671240D1*
X5039303Y10676070D1*
X5024703D1*
X5000445Y10671240D1*
X4985845Y10661470D1*
X4981015Y10646870D1*
Y10637211D1*
X4985845Y10622611D1*
X5000445Y10612953D1*
X5024703Y10608011D1*
X5039303D1*
X5063561Y10612953D1*
X5078161Y10622611D1*
X5082991Y10637211D1*
Y10646870D1*
X5063561Y10612953D2*
X5000445Y10671240D1*
X3145942Y3438561D2*
X3155713Y3443503D1*
X3170313Y3457991D1*
Y3356015D1*
X3259973Y3457991D2*
X3211456D1*
X3206627Y3414303D1*
X3211456Y3419132D1*
X3226056Y3424074D1*
X3240544D1*
X3255144Y3419132D1*
X3264915Y3409474D1*
X3269744Y3394874D1*
Y3385215D1*
X3264915Y3370615D1*
X3255144Y3360845D1*
X3240544Y3356015D1*
X3226056D1*
X3211456Y3360845D1*
X3206627Y3365786D1*
X3201686Y3375445D1*
X2482102Y9182991D2*
X2433585D1*
X2428755Y9139303D1*
X2433585Y9144132D1*
X2448185Y9149074D1*
X2462672D1*
X2477272Y9144132D1*
X2487043Y9134474D1*
X2491872Y9119874D1*
Y9110215D1*
X2487043Y9095615D1*
X2477272Y9085845D1*
X2462672Y9081015D1*
X2448185D1*
X2433585Y9085845D1*
X2428755Y9090786D1*
X2423814Y9100445D1*
X867009Y5232386D2*
Y5183869D1*
X910697Y5179040D1*
X905868Y5183869D1*
X900926Y5198469D1*
Y5212957D1*
X905868Y5227557D1*
X915526Y5237328D1*
X930126Y5242157D1*
X939785D1*
X954385Y5237328D1*
X964155Y5227557D1*
X968985Y5212957D1*
Y5198469D1*
X964155Y5183869D1*
X959214Y5179040D1*
X949555Y5174098D1*
X867009Y5302729D2*
X871839Y5288129D1*
X886439Y5278359D1*
X910697Y5273529D1*
X925297D1*
X949555Y5278359D1*
X964155Y5288129D1*
X968985Y5302729D1*
Y5312388D1*
X964155Y5326988D1*
X949555Y5336646D1*
X925297Y5341588D1*
X910697D1*
X886439Y5336646D1*
X871839Y5326988D1*
X867009Y5312388D1*
Y5302729D1*
X886439Y5336646D2*
X949555Y5278359D1*
X2233468Y7908732D2*
Y7913561D1*
X2238298Y7923332D1*
X2243127Y7928161D1*
X2252898Y7932991D1*
X2272327D1*
X2281985Y7928161D1*
X2286814Y7923332D1*
X2291756Y7913561D1*
Y7903903D1*
X2286814Y7894132D1*
X2277156Y7879645D1*
X2228527Y7831015D1*
X2296585D1*
X2332787Y7840786D2*
X2327958Y7835845D1*
X2332787Y7831015D1*
X2337729Y7835845D1*
X2332787Y7840786D1*
X2427389Y7932991D2*
X2378872D1*
X2374043Y7889303D1*
X2378872Y7894132D1*
X2393472Y7899074D1*
X2407960D1*
X2422560Y7894132D1*
X2432330Y7884474D1*
X2437160Y7869874D1*
Y7860215D1*
X2432330Y7845615D1*
X2422560Y7835845D1*
X2407960Y7831015D1*
X2393472D1*
X2378872Y7835845D1*
X2374043Y7840786D1*
X2369101Y7850445D1*
X1991268Y7533468D2*
X1986439D1*
X1976668Y7538298D1*
X1971839Y7543127D1*
X1967009Y7552898D1*
Y7572327D1*
X1971839Y7581985D1*
X1976668Y7586814D1*
X1986439Y7591756D1*
X1996097D1*
X2005868Y7586814D1*
X2020355Y7577156D1*
X2068985Y7528527D1*
Y7596585D1*
X2059214Y7632787D2*
X2064155Y7627958D1*
X2068985Y7632787D1*
X2064155Y7637729D1*
X2059214Y7632787D1*
X1967009Y7727389D2*
Y7678872D1*
X2010697Y7674043D1*
X2005868Y7678872D1*
X2000926Y7693472D1*
Y7707960D1*
X2005868Y7722560D1*
X2015526Y7732330D1*
X2030126Y7737160D1*
X2039785D1*
X2054385Y7732330D1*
X2064155Y7722560D1*
X2068985Y7707960D1*
Y7693472D1*
X2064155Y7678872D1*
X2059214Y7674043D1*
X2049555Y7669101D1*
X3033732Y7716532D2*
X3038561D1*
X3048332Y7711702D1*
X3053161Y7706873D1*
X3057991Y7697102D1*
Y7677673D1*
X3053161Y7668015D1*
X3048332Y7663186D1*
X3038561Y7658244D1*
X3028903D1*
X3019132Y7663186D1*
X3004645Y7672844D1*
X2956015Y7721473D1*
Y7653415D1*
X2965786Y7617213D2*
X2960845Y7622042D1*
X2956015Y7617213D1*
X2960845Y7612271D1*
X2965786Y7617213D1*
X3057991Y7522611D2*
Y7571128D1*
X3014303Y7575957D1*
X3019132Y7571128D1*
X3024074Y7556528D1*
Y7542040D1*
X3019132Y7527440D1*
X3009474Y7517670D1*
X2994874Y7512840D1*
X2985215D1*
X2970615Y7517670D1*
X2960845Y7527440D1*
X2956015Y7542040D1*
Y7556528D1*
X2960845Y7571128D1*
X2965786Y7575957D1*
X2975445Y7580899D1*
X3433732Y2966532D2*
X3438561D1*
X3448332Y2961702D1*
X3453161Y2956873D1*
X3457991Y2947102D1*
Y2927673D1*
X3453161Y2918015D1*
X3448332Y2913186D1*
X3438561Y2908244D1*
X3428903D1*
X3419132Y2913186D1*
X3404645Y2922844D1*
X3356015Y2971473D1*
Y2903415D1*
X3365786Y2867213D2*
X3360845Y2872042D1*
X3356015Y2867213D1*
X3360845Y2862271D1*
X3365786Y2867213D1*
X3457991Y2772611D2*
Y2821128D1*
X3414303Y2825957D1*
X3419132Y2821128D1*
X3424074Y2806528D1*
Y2792040D1*
X3419132Y2777440D1*
X3409474Y2767670D1*
X3394874Y2762840D1*
X3385215D1*
X3370615Y2767670D1*
X3360845Y2777440D1*
X3356015Y2792040D1*
Y2806528D1*
X3360845Y2821128D1*
X3365786Y2825957D1*
X3375445Y2830899D1*
X2233468Y2458732D2*
Y2463561D1*
X2238298Y2473332D1*
X2243127Y2478161D1*
X2252898Y2482991D1*
X2272327D1*
X2281985Y2478161D1*
X2286814Y2473332D1*
X2291756Y2463561D1*
Y2453903D1*
X2286814Y2444132D1*
X2277156Y2429645D1*
X2228527Y2381015D1*
X2296585D1*
X2332787Y2390786D2*
X2327958Y2385845D1*
X2332787Y2381015D1*
X2337729Y2385845D1*
X2332787Y2390786D1*
X2427389Y2482991D2*
X2378872D1*
X2374043Y2439303D1*
X2378872Y2444132D1*
X2393472Y2449074D1*
X2407960D1*
X2422560Y2444132D1*
X2432330Y2434474D1*
X2437160Y2419874D1*
Y2410215D1*
X2432330Y2395615D1*
X2422560Y2385845D1*
X2407960Y2381015D1*
X2393472D1*
X2378872Y2385845D1*
X2374043Y2390786D1*
X2369101Y2400445D1*
X2033585Y3057991D2*
X2086931D1*
X2057843Y3019132D1*
X2072443D1*
X2082102Y3014303D1*
X2086931Y3009474D1*
X2091872Y2994874D1*
Y2985215D1*
X2086931Y2970615D1*
X2077272Y2960845D1*
X2062672Y2956015D1*
X2048072D1*
X2033585Y2960845D1*
X2028755Y2965786D1*
X2023814Y2975445D1*
X2833585Y3057991D2*
X2886931D1*
X2857843Y3019132D1*
X2872443D1*
X2882102Y3014303D1*
X2886931Y3009474D1*
X2891872Y2994874D1*
Y2985215D1*
X2886931Y2970615D1*
X2877272Y2960845D1*
X2862672Y2956015D1*
X2848072D1*
X2833585Y2960845D1*
X2828755Y2965786D1*
X2823814Y2975445D1*
X1645942Y3438561D2*
X1655713Y3443503D1*
X1670313Y3457991D1*
Y3356015D1*
X1759973Y3457991D2*
X1711456D1*
X1706627Y3414303D1*
X1711456Y3419132D1*
X1726056Y3424074D1*
X1740544D1*
X1755144Y3419132D1*
X1764915Y3409474D1*
X1769744Y3394874D1*
Y3385215D1*
X1764915Y3370615D1*
X1755144Y3360845D1*
X1740544Y3356015D1*
X1726056D1*
X1711456Y3360845D1*
X1706627Y3365786D1*
X1701686Y3375445D1*
X4593503Y3590428D2*
X4603161Y3595257D1*
X4607991Y3609857D1*
Y3619515D1*
X4603161Y3634115D1*
X4588561Y3643886D1*
X4564303Y3648715D1*
X4540045D1*
X4520615Y3643886D1*
X4510845Y3634115D1*
X4506015Y3619515D1*
Y3614686D1*
X4510845Y3600198D1*
X4520615Y3590428D1*
X4535215Y3585598D1*
X4540045D1*
X4554645Y3590428D1*
X4564303Y3600198D1*
X4569132Y3614686D1*
Y3619515D1*
X4564303Y3634115D1*
X4554645Y3643886D1*
X4540045Y3648715D1*
X1334572Y4893503D2*
X1329743Y4903161D1*
X1315143Y4907991D1*
X1305485D1*
X1290885Y4903161D1*
X1281114Y4888561D1*
X1276285Y4864303D1*
Y4840045D1*
X1281114Y4820615D1*
X1290885Y4810845D1*
X1305485Y4806015D1*
X1310314D1*
X1324802Y4810845D1*
X1334572Y4820615D1*
X1339402Y4835215D1*
Y4840045D1*
X1334572Y4854645D1*
X1324802Y4864303D1*
X1310314Y4869132D1*
X1305485D1*
X1290885Y4864303D1*
X1281114Y4854645D1*
X1276285Y4840045D1*
X3684572Y4393503D2*
X3679743Y4403161D1*
X3665143Y4407991D1*
X3655485D1*
X3640885Y4403161D1*
X3631114Y4388561D1*
X3626285Y4364303D1*
Y4340045D1*
X3631114Y4320615D1*
X3640885Y4310845D1*
X3655485Y4306015D1*
X3660314D1*
X3674802Y4310845D1*
X3684572Y4320615D1*
X3689402Y4335215D1*
Y4340045D1*
X3684572Y4354645D1*
X3674802Y4364303D1*
X3660314Y4369132D1*
X3655485D1*
X3640885Y4364303D1*
X3631114Y4354645D1*
X3626285Y4340045D1*
X2573529Y12038561D2*
X2583300Y12043503D1*
X2597900Y12057991D1*
Y11956015D1*
X2723529Y12068561D2*
X2733300Y12073503D1*
X2747900Y12087991D1*
Y11986015D1*
M02*
