G04 DipTrace 3.0.0.1*
G04 Верхний.gbr*
%MOMM*%
G04 #@! TF.FileFunction,Copper,L1,Top*
G04 #@! TF.Part,Single*
%AMOUTLINE0*
4,1,4,
-0.5,-0.75,
-0.5,0.75,
0.5,0.75,
0.5,-0.75,
-0.5,-0.75,
0*%
%AMOUTLINE1*
4,1,8,
-0.5,-0.75,
-0.25,-1.0,
0.25,-1.0,
0.5,-0.75,
0.5,0.75,
0.25,1.0,
-0.25,1.0,
-0.5,0.75,
-0.5,-0.75,
0*%
G04 #@! TA.AperFunction,Conductor*
%ADD13C,0.3*%
%ADD14C,0.5*%
G04 #@! TA.AperFunction,CopperBalancing*
%ADD15C,0.635*%
%ADD17R,1.1X1.0*%
%ADD18R,1.5X1.3*%
%ADD19R,1.3X1.5*%
%ADD20R,1.0X1.1*%
%ADD21R,1.5X2.2*%
%ADD23R,0.6X0.6*%
%ADD25R,1.5X1.0*%
%ADD26R,6.0X6.0*%
G04 #@! TA.AperFunction,ComponentPad*
%ADD27O,1.0X2.0*%
%ADD28R,1.524X1.524*%
%ADD29C,1.524*%
%ADD30R,1.15X1.05*%
%ADD31O,1.15X1.05*%
%ADD32R,1.5X1.5*%
%ADD33C,1.5*%
%ADD36R,1.7X1.7*%
%ADD37C,1.7*%
%ADD39C,5.0*%
G04 #@! TA.AperFunction,ViaPad*
%ADD40C,1.0*%
%ADD41C,1.016*%
%ADD93OUTLINE0*%
G04 #@! TA.AperFunction,ComponentPad*
%ADD94OUTLINE1*%
%FSLAX35Y35*%
G04*
G71*
G90*
G75*
G01*
G04 Top*
%LPD*%
X2029000Y17500000D2*
D13*
X1879000Y17650000D1*
X1700000D1*
X1300000Y17250000D1*
Y17075000D1*
Y16736343D1*
Y16675000D1*
X1546000Y16429000D1*
X1625000D1*
X3650000Y18500000D2*
X3000000D1*
X1300000Y17075000D2*
X1280000D1*
X1300000Y16736343D2*
X1261343Y16775000D1*
X1280000D1*
X1625000Y16556000D2*
X1744000D1*
X2514000Y15786000D1*
X2580000D1*
X3475000Y16556000D2*
X3356000D1*
X2586000Y15786000D1*
X2580000D1*
X1980000Y14731000D2*
X1975000D1*
Y14950000D1*
X2580000Y15555000D1*
Y15786000D1*
X2635000Y18225000D2*
X2645000Y18235000D1*
Y18450000D1*
X2650000Y17875000D2*
X2635000Y17890000D1*
Y18095000D1*
X2650000Y17875000D2*
X2625000Y17850000D1*
Y15786000D1*
X2580000D1*
X1625000Y16556000D2*
X1450000Y16731000D1*
Y16775000D1*
Y17075000D1*
Y17175000D1*
X1775000Y17500000D1*
X1475000Y13900000D2*
X2125000D1*
X2400000Y14175000D1*
Y14275000D1*
Y14450000D1*
X2325000Y14525000D1*
X2025000D1*
X1980000Y14570000D1*
Y14731000D1*
X2721000Y14275000D2*
X2400000D1*
X3270000Y14000000D2*
X3000000D1*
X2700000Y14300000D1*
Y14275000D1*
X2721000D1*
X2400000Y13400000D2*
X2125000Y13675000D1*
Y13900000D1*
X2770000Y12925000D2*
X2725000D1*
X2400000Y13250000D1*
Y13400000D1*
X1575000Y13125000D2*
X1600000Y13100000D1*
X1800000D1*
X1575000Y13125000D2*
Y12650000D1*
X1650000D1*
X2050000Y12675000D2*
X1800000Y12925000D1*
Y13100000D1*
X2050000Y12675000D2*
X2025000Y12650000D1*
X1650000D1*
X1800000Y13100000D2*
X1975000D1*
X2275000Y13400000D1*
X2400000D1*
X2645000Y18450000D2*
X2625000Y18470000D1*
Y18675000D1*
X2650000Y18700000D1*
Y18725000D1*
X1475000Y14350000D2*
X1175000Y14650000D1*
Y14725000D1*
X1475000Y14350000D2*
X2125000D1*
X1175000Y14915000D2*
X1150000Y14940000D1*
Y16150000D1*
X1302000Y16302000D1*
X1625000D1*
X3450000Y14575000D2*
X3475000Y14600000D1*
Y14900000D1*
X3470000Y14905000D1*
X3475000D1*
X2975000Y14275000D2*
X3085000Y14385000D1*
X3450000D1*
X2960000Y12925000D2*
X3125000Y13090000D1*
Y13375000D1*
X2996000Y14731000D2*
X2975000Y14752000D1*
Y14900000D1*
X2600000Y15275000D1*
X2525000D1*
X2475000Y18225000D2*
Y18450000D1*
X1425000Y18575000D2*
X2325000D1*
X2450000Y18450000D1*
X2475000D1*
X2425000D1*
X2225000Y18250000D1*
Y16875000D1*
X3570000Y12955000D2*
X3379000Y13146000D1*
Y13375000D1*
X1890000Y13575000D2*
X2040000Y13425000D1*
X2100000D1*
X1625000Y15286000D2*
X1736000D1*
X1875000Y15425000D1*
X3475000Y15667000D2*
X3442000Y15700000D1*
X3275000D1*
X1575000Y18075000D2*
X1375000Y17875000D1*
Y17750000D1*
X1325000Y17700000D1*
X3750000Y14565000D2*
Y15475000D1*
X3685000Y15540000D1*
X3475000D1*
X3550000Y14000000D2*
X3750000Y14200000D1*
Y14375000D1*
X2460000Y17875000D2*
X2475000Y17890000D1*
Y18095000D1*
X2460000Y17875000D2*
X2450000Y17865000D1*
Y17650000D1*
X3123000Y14731000D2*
Y14902000D1*
X3050000Y14975000D1*
Y15900000D1*
X3475000Y16175000D2*
X3750000D1*
X3475000Y16048000D2*
X3477000Y16050000D1*
X3750000D1*
X1495000Y13600000D2*
X1575000D1*
Y13295000D1*
Y13575000D1*
X1700000D1*
X1575000Y13295000D2*
X1580000Y13290000D1*
X1800000D1*
X1625000Y15159000D2*
X1609000Y15175000D1*
X1375000D1*
X1325000Y15225000D1*
Y15325000D1*
X1350000Y15350000D1*
Y15375000D1*
X1495000Y13600000D2*
X1200000Y13895000D1*
Y14100000D1*
X1650000Y12480000D2*
X1425000Y12705000D1*
Y12725000D1*
X1650000Y12480000D2*
X1655000Y12485000D1*
X2050000D1*
X1775000Y12225000D2*
X1650000Y12350000D1*
Y12480000D1*
X1625000Y14905000D2*
X1695000D1*
X1775000Y14825000D1*
Y14550000D1*
X2325000Y12700000D2*
X2110000Y12485000D1*
X2050000D1*
X3475000Y16429000D2*
X3471000Y16425000D1*
X3400000D1*
X3175000Y16200000D1*
Y15050000D1*
X3200000Y15025000D1*
X3250000D1*
X2500000Y12550000D2*
Y12925000D1*
X1275000Y13600000D2*
X1200000Y13525000D1*
Y12725000D1*
X1205000D1*
X1200000Y12720000D1*
Y12200000D1*
X1375000Y12025000D1*
X2700000D1*
X2750000D1*
X2875000Y12150000D1*
Y12550000D1*
X2690000D1*
X2700000Y12025000D2*
Y8125000D1*
D14*
X2580000Y8005000D1*
Y7985000D1*
X1625000Y15032000D2*
D13*
X1682000D1*
X2125000Y15475000D1*
Y15975000D1*
X2750000Y17025000D2*
X3235000Y17510000D1*
Y17625000D1*
X3650000Y18050000D2*
X3000000D1*
X3425000Y17625000D2*
X3650000Y17850000D1*
Y18050000D1*
X1965000Y12225000D2*
X2225000D1*
X3570000Y12765000D2*
X3585000Y12750000D1*
Y12515000D1*
X3355000Y4085000D2*
D14*
X3390000Y4120000D1*
Y5950000D1*
X3252000Y13375000D2*
D13*
X3255000Y13372000D1*
Y12780000D1*
X3200000Y12725000D1*
Y12540000D1*
X3195000D1*
X1620000Y4035000D2*
D14*
X1605000Y4050000D1*
Y5915000D1*
D40*
X2450000Y17650000D3*
D41*
X3050000Y15900000D3*
X1425000Y18575000D3*
X2125000Y15975000D3*
X2750000Y17025000D3*
X1350000Y15375000D3*
X1775000Y14550000D3*
X2225000Y16875000D3*
X1875000Y15425000D3*
X2225000Y12225000D3*
X2525000Y15275000D3*
X2100000Y13425000D3*
X2700000Y12025000D3*
X3250000Y15025000D3*
X2500000Y12925000D3*
X2650000Y18725000D3*
X3275000Y15700000D3*
X1575000Y18075000D3*
X1325000Y17700000D3*
X2325000Y12700000D3*
X1200000Y14100000D3*
X3585000Y12515000D3*
X3195000Y12540000D3*
X1605000Y5915000D3*
X3390000Y5950000D3*
X2580000Y7985000D3*
X2850000Y8275000D3*
Y8575000D3*
Y8425000D3*
Y8125000D3*
Y8875000D3*
Y8725000D3*
Y9175000D3*
Y9475000D3*
Y9325000D3*
Y9025000D3*
Y9775000D3*
Y9625000D3*
Y10075000D3*
Y10375000D3*
Y10225000D3*
Y9925000D3*
Y10675000D3*
Y10525000D3*
Y10975000D3*
Y11275000D3*
Y11125000D3*
Y10825000D3*
Y11575000D3*
Y11425000D3*
Y11725000D3*
X2550000Y8575000D3*
Y8875000D3*
Y8725000D3*
Y8425000D3*
Y9175000D3*
Y9025000D3*
Y9475000D3*
Y9775000D3*
Y9625000D3*
Y9325000D3*
Y10075000D3*
Y9925000D3*
Y10375000D3*
Y10675000D3*
Y10525000D3*
Y10225000D3*
Y10975000D3*
Y10825000D3*
Y11275000D3*
Y11575000D3*
Y11425000D3*
Y11125000D3*
Y11725000D3*
X2260567Y7980083D2*
D15*
X2639430D1*
X2251543Y7916917D2*
X2648453D1*
X2242520Y7853750D2*
X2657477D1*
X2238147Y7790583D2*
X2661943D1*
X2238147Y7727417D2*
X2661943D1*
X2238147Y7664250D2*
X2661943D1*
X2238147Y7601083D2*
X2661943D1*
X2238147Y7537917D2*
X2661943D1*
X2238147Y7474750D2*
X2661943D1*
X2238147Y7411583D2*
X2661943D1*
X2238147Y7348417D2*
X2661943D1*
X2238147Y7285250D2*
X2661943D1*
X2238147Y7222083D2*
X2661943D1*
X2238147Y7158917D2*
X2661943D1*
X2238147Y7095750D2*
X2661943D1*
X2238147Y7032583D2*
X2661943D1*
X2238147Y6969417D2*
X2661943D1*
X2238147Y6906250D2*
X2661943D1*
X2238147Y6843083D2*
X2661943D1*
X2238147Y6779917D2*
X2661943D1*
X2238147Y6716750D2*
X2661943D1*
X2238147Y6653583D2*
X2661943D1*
X2238147Y6590417D2*
X2661943D1*
X2238147Y6527250D2*
X2661943D1*
X2238147Y6464083D2*
X2661943D1*
X2238147Y6400917D2*
X2661943D1*
X2238147Y6337750D2*
X2661943D1*
X2238147Y6274583D2*
X2661943D1*
X2238147Y6211417D2*
X2661943D1*
X2238147Y6148250D2*
X2661943D1*
X2238147Y6085083D2*
X2661943D1*
X2238147Y6021917D2*
X2661943D1*
X2238147Y5958750D2*
X2661943D1*
X2238147Y5895583D2*
X2661943D1*
X2238147Y5832417D2*
X2661943D1*
X2238147Y5769250D2*
X2661943D1*
X2238147Y5706083D2*
X2661943D1*
X2238147Y5642917D2*
X2661943D1*
X2238147Y5579750D2*
X2661943D1*
X2238147Y5516583D2*
X2661943D1*
X2238147Y5453417D2*
X2661943D1*
X2238147Y5390250D2*
X2661943D1*
X2238147Y5327083D2*
X2661943D1*
X2238147Y5263917D2*
X2661943D1*
X2238147Y5200750D2*
X2661943D1*
X2238147Y5137583D2*
X2661943D1*
X2238147Y5074417D2*
X2661943D1*
X2238147Y5011250D2*
X2661943D1*
X2238147Y4948083D2*
X2661943D1*
X2238147Y4884917D2*
X2661943D1*
X2238147Y4821750D2*
X2661943D1*
X2238147Y4758583D2*
X2661943D1*
X2238147Y4695417D2*
X2661943D1*
X2238147Y4632250D2*
X2661943D1*
X2238147Y4569083D2*
X2661943D1*
X2238147Y4505917D2*
X2661943D1*
X2238147Y4442750D2*
X2661943D1*
X2238147Y4379583D2*
X2661943D1*
X2238147Y4316417D2*
X2661943D1*
X2238147Y4253250D2*
X2661943D1*
X2238147Y4190083D2*
X2661943D1*
X2238147Y4126917D2*
X2661943D1*
X2238147Y4063750D2*
X2661943D1*
X2238147Y4000583D2*
X2661943D1*
X2238147Y3937417D2*
X2661943D1*
X2238147Y3874250D2*
X2661943D1*
X2238147Y3811083D2*
X2661943D1*
X2238147Y3747917D2*
X2661943D1*
X2238147Y3684750D2*
X2661943D1*
X2238147Y3621583D2*
X2661943D1*
X2238147Y3558417D2*
X2661943D1*
X2238147Y3495250D2*
X2661943D1*
X2238147Y3432083D2*
X2661943D1*
X2238147Y3368917D2*
X2661943D1*
X2241153Y3305750D2*
X2658843D1*
X2250177Y3242583D2*
X2649820D1*
X2259200Y3179417D2*
X2640797D1*
X2382337Y3116250D2*
X2517660D1*
X2254923Y7984953D2*
X2231750Y7822747D1*
Y3327267D1*
X2255697Y3159637D1*
X2270803Y3129390D1*
X2449957Y3107003D1*
X2629207Y3129397D1*
X2644293Y3159587D1*
X2668250Y3327253D1*
Y7822733D1*
X2645063Y7985060D1*
X2610077Y8020023D1*
X2450033Y8042923D1*
X2289940Y8020063D1*
X2254930Y7985030D1*
X1188147Y11730083D2*
X2313310D1*
X1188147Y11666917D2*
X2314220D1*
X1188147Y11603750D2*
X2315133D1*
X1188147Y11540583D2*
X2316043D1*
X1188147Y11477417D2*
X2317047D1*
X1188147Y11414250D2*
X2317960D1*
X1188147Y11351083D2*
X2318870D1*
X1188147Y11287917D2*
X2319780D1*
X1188147Y11224750D2*
X2320693D1*
X1188147Y11161583D2*
X2321697D1*
X1188147Y11098417D2*
X2322607D1*
X1188147Y11035250D2*
X2323520D1*
X1188147Y10972083D2*
X2324430D1*
X1188147Y10908917D2*
X2325340D1*
X1188147Y10845750D2*
X2326253D1*
X1188147Y10782583D2*
X2327257D1*
X1188147Y10719417D2*
X2328167D1*
X1188147Y10656250D2*
X2329080D1*
X1188147Y10593083D2*
X2329990D1*
X1188147Y10529917D2*
X2330900D1*
X1188147Y10466750D2*
X2331903D1*
X1188147Y10403583D2*
X2332817D1*
X1188147Y10340417D2*
X2333727D1*
X1188147Y10277250D2*
X2334637D1*
X1188147Y10214083D2*
X2335550D1*
X1188147Y10150917D2*
X2336553D1*
X1188147Y10087750D2*
X2337463D1*
X1188147Y10024583D2*
X2338377D1*
X1188147Y9961417D2*
X2339287D1*
X1188147Y9898250D2*
X2340197D1*
X1188147Y9835083D2*
X2341200D1*
X1188147Y9771917D2*
X2342113D1*
X1188147Y9708750D2*
X2343023D1*
X1188147Y9645583D2*
X2343937D1*
X1188147Y9582417D2*
X2344847D1*
X1188147Y9519250D2*
X2345850D1*
X1188147Y9456083D2*
X2346760D1*
X1188147Y9392917D2*
X2347673D1*
X1188147Y9329750D2*
X2348583D1*
X1188147Y9266583D2*
X2349497D1*
X1188147Y9203417D2*
X2350407D1*
X1188147Y9140250D2*
X2351410D1*
X1188147Y9077083D2*
X2352320D1*
X1188147Y9013917D2*
X2353233D1*
X1188147Y8950750D2*
X2354143D1*
X1188147Y8887583D2*
X2355053D1*
X1188147Y8824417D2*
X2356057D1*
X1188147Y8761250D2*
X2356970D1*
X1188147Y8698083D2*
X2357880D1*
X1188147Y8634917D2*
X2358793D1*
X1188147Y8571750D2*
X2359703D1*
X1188147Y8508583D2*
X2360707D1*
X1188147Y8445417D2*
X2361617D1*
X1188147Y8382250D2*
X2314040D1*
X1188147Y8319083D2*
X2258803D1*
X1188147Y8255917D2*
X2203480D1*
X1188147Y8192750D2*
X2148247D1*
X1188147Y8129583D2*
X2093010D1*
X1188147Y8066417D2*
X2037687D1*
X1188147Y8003250D2*
X2011890D1*
X1188147Y7940083D2*
X2011890D1*
X1188147Y7876917D2*
X2011890D1*
X1188147Y7813750D2*
X2011890D1*
X1188147Y7750583D2*
X2011890D1*
X1188147Y7687417D2*
X2011890D1*
X1188147Y7624250D2*
X2011890D1*
X1188147Y7561083D2*
X2011890D1*
X1188147Y7497917D2*
X2011890D1*
X1188147Y7434750D2*
X2011890D1*
X1188147Y7371583D2*
X2011890D1*
X1188147Y7308417D2*
X2011890D1*
X1188147Y7245250D2*
X2011890D1*
X1188147Y7182083D2*
X2011890D1*
X1188147Y7118917D2*
X2011890D1*
X1188147Y7055750D2*
X2011890D1*
X1188147Y6992583D2*
X2011890D1*
X1188147Y6929417D2*
X2011890D1*
X1188147Y6866250D2*
X2011890D1*
X1188147Y6803083D2*
X2011890D1*
X1188147Y6739917D2*
X2011890D1*
X1188147Y6676750D2*
X2011890D1*
X1188147Y6613583D2*
X2011890D1*
X1188147Y6550417D2*
X2011890D1*
X1188147Y6487250D2*
X2011890D1*
X1188147Y6424083D2*
X2011890D1*
X1188147Y6360917D2*
X2011890D1*
X1188147Y6297750D2*
X2011890D1*
X1188147Y6234583D2*
X2011890D1*
X1188147Y6171417D2*
X2011890D1*
X1188147Y6108250D2*
X2011890D1*
X1188147Y6045083D2*
X1562177D1*
X1647793D2*
X2011890D1*
X1188147Y5981917D2*
X1481330D1*
X1728730D2*
X2011890D1*
X1188147Y5918750D2*
X1463650D1*
X1746413D2*
X2011890D1*
X1188147Y5855583D2*
X1477320D1*
X1732650D2*
X2011890D1*
X1188147Y5792417D2*
X1489353D1*
X1720620D2*
X2011890D1*
X1188147Y5729250D2*
X1489353D1*
X1720620D2*
X2011890D1*
X1188147Y5666083D2*
X1489353D1*
X1720620D2*
X2011890D1*
X1188147Y5602917D2*
X1489353D1*
X1720620D2*
X2011890D1*
X1188147Y5539750D2*
X1489353D1*
X1720620D2*
X2011890D1*
X1188147Y5476583D2*
X1489353D1*
X1720620D2*
X2011890D1*
X1188147Y5413417D2*
X1489353D1*
X1720620D2*
X2011890D1*
X1188147Y5350250D2*
X1489353D1*
X1720620D2*
X2011890D1*
X1188147Y5287083D2*
X1489353D1*
X1720620D2*
X2011890D1*
X1188147Y5223917D2*
X1489353D1*
X1720620D2*
X2011890D1*
X1188147Y5160750D2*
X1489353D1*
X1720620D2*
X2011890D1*
X1188147Y5097583D2*
X1489353D1*
X1720620D2*
X2011890D1*
X1188147Y5034417D2*
X1489353D1*
X1720620D2*
X2011890D1*
X1188147Y4971250D2*
X1489353D1*
X1720620D2*
X2011890D1*
X1188147Y4908083D2*
X1489353D1*
X1720620D2*
X2011890D1*
X1188147Y4844917D2*
X1489353D1*
X1720620D2*
X2011890D1*
X1188147Y4781750D2*
X1489353D1*
X1720620D2*
X2011890D1*
X1188147Y4718583D2*
X1489353D1*
X1720620D2*
X2011890D1*
X1188147Y4655417D2*
X1489353D1*
X1720620D2*
X2011890D1*
X1188147Y4592250D2*
X1489353D1*
X1720620D2*
X2011890D1*
X1188147Y4529083D2*
X1489353D1*
X1720620D2*
X2011890D1*
X1188147Y4465917D2*
X1489353D1*
X1720620D2*
X2011890D1*
X1188147Y4402750D2*
X1489353D1*
X1720620D2*
X2011890D1*
X1188147Y4339583D2*
X1489353D1*
X1720620D2*
X2011890D1*
X1188147Y4276417D2*
X1489353D1*
X1720620D2*
X2011890D1*
X1188147Y4213250D2*
X1424363D1*
X1775670D2*
X2011890D1*
X1188147Y4150083D2*
X1346527D1*
X1853510D2*
X2011890D1*
X1188147Y4086917D2*
X1301227D1*
X1898810D2*
X2011890D1*
X1188147Y4023750D2*
X1274247D1*
X1925697D2*
X2011890D1*
X1188147Y3960583D2*
X1261213D1*
X1938730D2*
X2011890D1*
X1188147Y3897417D2*
X1260483D1*
X1939460D2*
X2011890D1*
X1188147Y3834250D2*
X1271877D1*
X1928067D2*
X2011890D1*
X1188147Y3771083D2*
X1296943D1*
X1903093D2*
X2011890D1*
X1188147Y3707917D2*
X1339417D1*
X1860530D2*
X2011890D1*
X1188147Y3644750D2*
X1411423D1*
X1788613D2*
X2011890D1*
X1188147Y3581583D2*
X2011890D1*
X1188147Y3518417D2*
X2011890D1*
X1188147Y3455250D2*
X2011890D1*
X1188147Y3392083D2*
X2011890D1*
X1188147Y3328917D2*
X2011890D1*
X1188147Y3265750D2*
X2011890D1*
X1188147Y3202583D2*
X2011890D1*
X1188147Y3139417D2*
X2011890D1*
X1188147Y3076250D2*
X2011890D1*
X1204097Y3013083D2*
X2014260D1*
X1249760Y2949917D2*
X2213050D1*
X1295333Y2886750D2*
X2411930D1*
X1340997Y2823583D2*
X2411930D1*
X1386570Y2760417D2*
X2411930D1*
X1432233Y2697250D2*
X2411930D1*
X1477807Y2634083D2*
X2411930D1*
X1523470Y2570917D2*
X2411930D1*
X1569043Y2507750D2*
X2411930D1*
X1614707Y2444583D2*
X2411930D1*
X1660280Y2381417D2*
X2411930D1*
X1705947Y2318250D2*
X2411930D1*
X1751610Y2255083D2*
X2411930D1*
X1797183Y2191917D2*
X2411930D1*
X1842847Y2128750D2*
X2411930D1*
X1888420Y2065583D2*
X2411930D1*
X1934083Y2002417D2*
X2411930D1*
X1979657Y1939250D2*
X2411930D1*
X2025320Y1876083D2*
X2411930D1*
X2070893Y1812917D2*
X2411930D1*
X2116557Y1749750D2*
X2411930D1*
X2162130Y1686583D2*
X2411930D1*
X2207793Y1623417D2*
X2411930D1*
X2253367Y1560250D2*
X2411930D1*
X2299030Y1497083D2*
X2411930D1*
X2344603Y1433917D2*
X2411930D1*
X2390267Y1370750D2*
X2411863D1*
X1739673Y5904400D2*
X1736357Y5883463D1*
X1729807Y5863303D1*
X1720183Y5844417D1*
X1714263Y5835563D1*
X1714290Y4239100D1*
X1746243Y4225603D1*
X1766853Y4214673D1*
X1786647Y4202330D1*
X1805537Y4188637D1*
X1823423Y4173660D1*
X1840220Y4157473D1*
X1855850Y4140153D1*
X1870230Y4121787D1*
X1883297Y4102460D1*
X1894983Y4082270D1*
X1905233Y4061313D1*
X1914000Y4039693D1*
X1921233Y4017517D1*
X1926903Y3994887D1*
X1930980Y3971917D1*
X1933447Y3948720D1*
X1934290Y3925000D1*
X1933477Y3901687D1*
X1931037Y3878483D1*
X1926987Y3855510D1*
X1921347Y3832873D1*
X1914137Y3810687D1*
X1905400Y3789057D1*
X1895177Y3768087D1*
X1883513Y3747883D1*
X1870470Y3728543D1*
X1856110Y3710157D1*
X1840503Y3692820D1*
X1823723Y3676610D1*
X1805857Y3661613D1*
X1786983Y3647897D1*
X1767203Y3635530D1*
X1746607Y3624573D1*
X1725300Y3615080D1*
X1703380Y3607097D1*
X1680957Y3600660D1*
X1658137Y3595803D1*
X1635037Y3592550D1*
X1611767Y3590917D1*
X1588437Y3590910D1*
X1565163Y3592530D1*
X1542063Y3595770D1*
X1519243Y3600610D1*
X1496813Y3607033D1*
X1474890Y3615003D1*
X1453573Y3624483D1*
X1432973Y3635430D1*
X1413183Y3647783D1*
X1394303Y3661487D1*
X1376427Y3676473D1*
X1359640Y3692673D1*
X1344020Y3710000D1*
X1329650Y3728377D1*
X1316593Y3747713D1*
X1304920Y3767910D1*
X1294683Y3788870D1*
X1285933Y3810497D1*
X1278710Y3832680D1*
X1273053Y3855313D1*
X1268990Y3878283D1*
X1266537Y3901483D1*
X1265710Y3924797D1*
X1266510Y3948113D1*
X1268933Y3971313D1*
X1272970Y3994290D1*
X1278600Y4016930D1*
X1285793Y4039123D1*
X1294517Y4060757D1*
X1304730Y4081733D1*
X1316380Y4101943D1*
X1329410Y4121293D1*
X1343760Y4139687D1*
X1359357Y4157037D1*
X1376127Y4173253D1*
X1393983Y4188263D1*
X1412847Y4201990D1*
X1432620Y4214367D1*
X1453210Y4225337D1*
X1474513Y4234843D1*
X1495657Y4242560D1*
X1495710Y5835597D1*
X1484633Y5853670D1*
X1476523Y5873253D1*
X1471573Y5893867D1*
X1469910Y5915000D1*
X1471573Y5936133D1*
X1476523Y5956747D1*
X1484633Y5976330D1*
X1495710Y5994403D1*
X1509477Y6010523D1*
X1525597Y6024290D1*
X1543670Y6035367D1*
X1563253Y6043477D1*
X1583867Y6048427D1*
X1605000Y6050090D1*
X1626133Y6048427D1*
X1646747Y6043477D1*
X1666330Y6035367D1*
X1684403Y6024290D1*
X1700523Y6010523D1*
X1714290Y5994403D1*
X1725367Y5976330D1*
X1733477Y5956747D1*
X1738427Y5936133D1*
X1740090Y5915000D1*
X1739673Y5904400D1*
X2026167Y8045977D2*
X2368110Y8436770D1*
X2318713Y11793193D1*
X1181783Y11793250D1*
X1181750Y3035350D1*
X2418237Y1323207D1*
X2418250Y2900170D1*
X2037850Y2995667D1*
X2031337Y2999313D1*
X2025857Y3004380D1*
X2021710Y3010587D1*
X2019127Y3017587D1*
X2018250Y3025000D1*
X2018640Y8029967D1*
X2020667Y8037150D1*
X2024313Y8043663D1*
X2025863Y8045627D1*
X2389513Y11730083D2*
X2594377D1*
X2805683D2*
X3711917D1*
X2390423Y11666917D2*
X2594377D1*
X2805683D2*
X3711917D1*
X2391337Y11603750D2*
X2594377D1*
X2805683D2*
X3711917D1*
X2392247Y11540583D2*
X2594377D1*
X2805683D2*
X3711917D1*
X2393250Y11477417D2*
X2594377D1*
X2805683D2*
X3711917D1*
X2394160Y11414250D2*
X2594377D1*
X2805683D2*
X3711917D1*
X2395073Y11351083D2*
X2594377D1*
X2805683D2*
X3711917D1*
X2395983Y11287917D2*
X2594377D1*
X2805683D2*
X3711917D1*
X2396897Y11224750D2*
X2594377D1*
X2805683D2*
X3711917D1*
X2397897Y11161583D2*
X2594377D1*
X2805683D2*
X3711917D1*
X2398810Y11098417D2*
X2594377D1*
X2805683D2*
X3711917D1*
X2399720Y11035250D2*
X2594377D1*
X2805683D2*
X3711917D1*
X2400633Y10972083D2*
X2594377D1*
X2805683D2*
X3711917D1*
X2401543Y10908917D2*
X2594377D1*
X2805683D2*
X3711917D1*
X2402547Y10845750D2*
X2594377D1*
X2805683D2*
X3711917D1*
X2403457Y10782583D2*
X2594377D1*
X2805683D2*
X3711917D1*
X2404370Y10719417D2*
X2594377D1*
X2805683D2*
X3711917D1*
X2405280Y10656250D2*
X2594377D1*
X2805683D2*
X3711917D1*
X2406193Y10593083D2*
X2594377D1*
X2805683D2*
X3711917D1*
X2407103Y10529917D2*
X2594377D1*
X2805683D2*
X3711917D1*
X2408107Y10466750D2*
X2594377D1*
X2805683D2*
X3711917D1*
X2409017Y10403583D2*
X2594377D1*
X2805683D2*
X3711917D1*
X2409930Y10340417D2*
X2594377D1*
X2805683D2*
X3711917D1*
X2410840Y10277250D2*
X2594377D1*
X2805683D2*
X3711917D1*
X2411753Y10214083D2*
X2594377D1*
X2805683D2*
X3711917D1*
X2412753Y10150917D2*
X2594377D1*
X2805683D2*
X3711917D1*
X2413667Y10087750D2*
X2594377D1*
X2805683D2*
X3711917D1*
X2414577Y10024583D2*
X2594377D1*
X2805683D2*
X3711917D1*
X2415490Y9961417D2*
X2594377D1*
X2805683D2*
X3711917D1*
X2416400Y9898250D2*
X2594377D1*
X2805683D2*
X3711917D1*
X2417403Y9835083D2*
X2594377D1*
X2805683D2*
X3711917D1*
X2418313Y9771917D2*
X2594377D1*
X2805683D2*
X3711917D1*
X2419227Y9708750D2*
X2594377D1*
X2805683D2*
X3711917D1*
X2420137Y9645583D2*
X2594377D1*
X2805683D2*
X3711917D1*
X2421050Y9582417D2*
X2594377D1*
X2805683D2*
X3711917D1*
X2422053Y9519250D2*
X2594377D1*
X2805683D2*
X3711917D1*
X2422963Y9456083D2*
X2594377D1*
X2805683D2*
X3711917D1*
X2423873Y9392917D2*
X2594377D1*
X2805683D2*
X3711917D1*
X2424787Y9329750D2*
X2594377D1*
X2805683D2*
X3711917D1*
X2425697Y9266583D2*
X2594377D1*
X2805683D2*
X3711917D1*
X2426700Y9203417D2*
X2594377D1*
X2805683D2*
X3711917D1*
X2427613Y9140250D2*
X2594377D1*
X2805683D2*
X3711917D1*
X2428523Y9077083D2*
X2594377D1*
X2805683D2*
X3711917D1*
X2429433Y9013917D2*
X2594377D1*
X2805683D2*
X3711917D1*
X2430347Y8950750D2*
X2594377D1*
X2805683D2*
X3711917D1*
X2431257Y8887583D2*
X2594377D1*
X2805683D2*
X3711917D1*
X2432260Y8824417D2*
X2594377D1*
X2805683D2*
X3711917D1*
X2433170Y8761250D2*
X2594377D1*
X2805683D2*
X3711917D1*
X2434083Y8698083D2*
X2594377D1*
X2805683D2*
X3711917D1*
X2434993Y8634917D2*
X2594377D1*
X2805683D2*
X3711917D1*
X2435907Y8571750D2*
X2594377D1*
X2805683D2*
X3711917D1*
X2436910Y8508583D2*
X2594377D1*
X2805683D2*
X3711917D1*
X2437820Y8445417D2*
X2594377D1*
X2805683D2*
X3711917D1*
X2493967Y8382250D2*
X2594377D1*
X2805683D2*
X3711917D1*
X2557130Y8319083D2*
X2594377D1*
X2805683D2*
X3711917D1*
X2805683Y8255917D2*
X3711917D1*
X2805683Y8192750D2*
X3711917D1*
X2815530Y8129583D2*
X3711917D1*
X2809877Y8066417D2*
X3711917D1*
X2873040Y8003250D2*
X3711917D1*
X2888080Y7940083D2*
X3711917D1*
X2888080Y7876917D2*
X3711917D1*
X2888080Y7813750D2*
X3711917D1*
X2888080Y7750583D2*
X3711917D1*
X2888080Y7687417D2*
X3711917D1*
X2888080Y7624250D2*
X3711917D1*
X2888080Y7561083D2*
X3711917D1*
X2888080Y7497917D2*
X3711917D1*
X2888080Y7434750D2*
X3711917D1*
X2888080Y7371583D2*
X3711917D1*
X2888080Y7308417D2*
X3711917D1*
X2888080Y7245250D2*
X3711917D1*
X2888080Y7182083D2*
X3711917D1*
X2888080Y7118917D2*
X3711917D1*
X2888080Y7055750D2*
X3711917D1*
X2888080Y6992583D2*
X3711917D1*
X2888080Y6929417D2*
X3711917D1*
X2888080Y6866250D2*
X3711917D1*
X2888080Y6803083D2*
X3711917D1*
X2888080Y6739917D2*
X3711917D1*
X2888080Y6676750D2*
X3711917D1*
X2888080Y6613583D2*
X3711917D1*
X2888080Y6550417D2*
X3711917D1*
X2888080Y6487250D2*
X3711917D1*
X2888080Y6424083D2*
X3711917D1*
X2888080Y6360917D2*
X3711917D1*
X2888080Y6297750D2*
X3711917D1*
X2888080Y6234583D2*
X3711917D1*
X2888080Y6171417D2*
X3711917D1*
X2888080Y6108250D2*
X3711917D1*
X2888080Y6045083D2*
X3287723D1*
X3492287D2*
X3711917D1*
X2888080Y5981917D2*
X3252360D1*
X3527650D2*
X3711917D1*
X2888080Y5918750D2*
X3252270D1*
X3527743D2*
X3711917D1*
X2888080Y5855583D2*
X3274327D1*
X3505683D2*
X3711917D1*
X2888080Y5792417D2*
X3274327D1*
X3505683D2*
X3711917D1*
X2888080Y5729250D2*
X3274327D1*
X3505683D2*
X3711917D1*
X2888080Y5666083D2*
X3274327D1*
X3505683D2*
X3711917D1*
X2888080Y5602917D2*
X3274327D1*
X3505683D2*
X3711917D1*
X2888080Y5539750D2*
X3274327D1*
X3505683D2*
X3711917D1*
X2888080Y5476583D2*
X3274327D1*
X3505683D2*
X3711917D1*
X2888080Y5413417D2*
X3274327D1*
X3505683D2*
X3711917D1*
X2888080Y5350250D2*
X3274327D1*
X3505683D2*
X3711917D1*
X2888080Y5287083D2*
X3274327D1*
X3505683D2*
X3711917D1*
X2888080Y5223917D2*
X3274327D1*
X3505683D2*
X3711917D1*
X2888080Y5160750D2*
X3274327D1*
X3505683D2*
X3711917D1*
X2888080Y5097583D2*
X3274327D1*
X3505683D2*
X3711917D1*
X2888080Y5034417D2*
X3274327D1*
X3505683D2*
X3711917D1*
X2888080Y4971250D2*
X3274327D1*
X3505683D2*
X3711917D1*
X2888080Y4908083D2*
X3274327D1*
X3505683D2*
X3711917D1*
X2888080Y4844917D2*
X3274327D1*
X3505683D2*
X3711917D1*
X2888080Y4781750D2*
X3274327D1*
X3505683D2*
X3711917D1*
X2888080Y4718583D2*
X3274327D1*
X3505683D2*
X3711917D1*
X2888080Y4655417D2*
X3274327D1*
X3505683D2*
X3711917D1*
X2888080Y4592250D2*
X3274327D1*
X3505683D2*
X3711917D1*
X2888080Y4529083D2*
X3274327D1*
X3505683D2*
X3711917D1*
X2888080Y4465917D2*
X3274327D1*
X3505683D2*
X3711917D1*
X2888080Y4402750D2*
X3274327D1*
X3505683D2*
X3711917D1*
X2888080Y4339583D2*
X3274327D1*
X3505683D2*
X3711917D1*
X2888080Y4276417D2*
X3274327D1*
X3505683D2*
X3711917D1*
X2888080Y4213250D2*
X3174340D1*
X3525647D2*
X3711917D1*
X2888080Y4150083D2*
X3096500D1*
X3603483D2*
X3711917D1*
X2888080Y4086917D2*
X3051200D1*
X3648783D2*
X3711917D1*
X2888080Y4023750D2*
X3024313D1*
X3675763D2*
X3711917D1*
X2888080Y3960583D2*
X3011280D1*
X3688707D2*
X3711917D1*
X2888080Y3897417D2*
X3010460D1*
X3689527D2*
X3711917D1*
X2888080Y3834250D2*
X3021943D1*
X3678040D2*
X3711917D1*
X2888080Y3771083D2*
X3046917D1*
X3653067D2*
X3711917D1*
X2888080Y3707917D2*
X3089390D1*
X3610593D2*
X3711917D1*
X2888080Y3644750D2*
X3161397D1*
X3538587D2*
X3711917D1*
X2888080Y3581583D2*
X3711917D1*
X2888080Y3518417D2*
X3711917D1*
X2888080Y3455250D2*
X3711917D1*
X2888080Y3392083D2*
X3711917D1*
X2888080Y3328917D2*
X3711917D1*
X2888080Y3265750D2*
X3711917D1*
X2888080Y3202583D2*
X3711917D1*
X2888080Y3139417D2*
X3711917D1*
X2888080Y3076250D2*
X3711917D1*
X2885803Y3013083D2*
X3711917D1*
X2686920Y2949917D2*
X3685483D1*
X2488133Y2886750D2*
X3638543D1*
X2488133Y2823583D2*
X3591603D1*
X2488133Y2760417D2*
X3544663D1*
X2488133Y2697250D2*
X3497723D1*
X2488133Y2634083D2*
X3450877D1*
X2488133Y2570917D2*
X3403937D1*
X2488133Y2507750D2*
X3356997D1*
X2488133Y2444583D2*
X3310053D1*
X2488133Y2381417D2*
X3263113D1*
X2488133Y2318250D2*
X3216267D1*
X2488133Y2255083D2*
X3169327D1*
X2488133Y2191917D2*
X3122387D1*
X2488133Y2128750D2*
X3075447D1*
X2488133Y2065583D2*
X3028507D1*
X2488133Y2002417D2*
X2981567D1*
X2488133Y1939250D2*
X2934717D1*
X2488133Y1876083D2*
X2887777D1*
X2488133Y1812917D2*
X2840837D1*
X2488133Y1749750D2*
X2793897D1*
X2488133Y1686583D2*
X2746957D1*
X2488133Y1623417D2*
X2700107D1*
X2488133Y1560250D2*
X2653167D1*
X2488133Y1497083D2*
X2606227D1*
X2488133Y1433917D2*
X2559287D1*
X2488133Y1370750D2*
X2512357D1*
X3524673Y5939400D2*
X3521357Y5918463D1*
X3514807Y5898303D1*
X3505183Y5879417D1*
X3499263Y5870563D1*
X3499290Y4224153D1*
X3516853Y4214673D1*
X3536647Y4202330D1*
X3555537Y4188637D1*
X3573423Y4173660D1*
X3590220Y4157473D1*
X3605850Y4140153D1*
X3620230Y4121787D1*
X3633297Y4102460D1*
X3644983Y4082270D1*
X3655233Y4061313D1*
X3664000Y4039693D1*
X3671233Y4017517D1*
X3676903Y3994887D1*
X3680980Y3971917D1*
X3683447Y3948720D1*
X3684290Y3925000D1*
X3683477Y3901687D1*
X3681037Y3878483D1*
X3676987Y3855510D1*
X3671347Y3832873D1*
X3664137Y3810687D1*
X3655400Y3789057D1*
X3645177Y3768087D1*
X3633513Y3747883D1*
X3620470Y3728543D1*
X3606110Y3710157D1*
X3590503Y3692820D1*
X3573723Y3676610D1*
X3555857Y3661613D1*
X3536983Y3647897D1*
X3517203Y3635530D1*
X3496607Y3624573D1*
X3475300Y3615080D1*
X3453380Y3607097D1*
X3430957Y3600660D1*
X3408137Y3595803D1*
X3385037Y3592550D1*
X3361767Y3590917D1*
X3338437Y3590910D1*
X3315163Y3592530D1*
X3292063Y3595770D1*
X3269243Y3600610D1*
X3246813Y3607033D1*
X3224890Y3615003D1*
X3203573Y3624483D1*
X3182973Y3635430D1*
X3163183Y3647783D1*
X3144303Y3661487D1*
X3126427Y3676473D1*
X3109640Y3692673D1*
X3094020Y3710000D1*
X3079650Y3728377D1*
X3066593Y3747713D1*
X3054920Y3767910D1*
X3044683Y3788870D1*
X3035933Y3810497D1*
X3028710Y3832680D1*
X3023053Y3855313D1*
X3018990Y3878283D1*
X3016537Y3901483D1*
X3015710Y3924797D1*
X3016510Y3948113D1*
X3018933Y3971313D1*
X3022970Y3994290D1*
X3028600Y4016930D1*
X3035793Y4039123D1*
X3044517Y4060757D1*
X3054730Y4081733D1*
X3066380Y4101943D1*
X3079410Y4121293D1*
X3093760Y4139687D1*
X3109357Y4157037D1*
X3126127Y4173253D1*
X3143983Y4188263D1*
X3162847Y4201990D1*
X3182620Y4214367D1*
X3203210Y4225337D1*
X3224513Y4234843D1*
X3246430Y4242840D1*
X3280700Y4251820D1*
X3280710Y5870597D1*
X3269633Y5888670D1*
X3261523Y5908253D1*
X3256573Y5928867D1*
X3254910Y5950000D1*
X3256573Y5971133D1*
X3261523Y5991747D1*
X3269633Y6011330D1*
X3280710Y6029403D1*
X3294477Y6045523D1*
X3310597Y6059290D1*
X3328670Y6070367D1*
X3348253Y6078477D1*
X3368867Y6083427D1*
X3390000Y6085090D1*
X3411133Y6083427D1*
X3431747Y6078477D1*
X3451330Y6070367D1*
X3469403Y6059290D1*
X3485523Y6045523D1*
X3499290Y6029403D1*
X3510367Y6011330D1*
X3518477Y5991747D1*
X3523427Y5971133D1*
X3525090Y5950000D1*
X3524673Y5939400D1*
X2799290Y11793217D2*
Y8170717D1*
X2803940Y8158773D1*
X2807943Y8142097D1*
X2809290Y8125000D1*
X2807943Y8107903D1*
X2803940Y8091227D1*
X2796347Y8073540D1*
X2875687Y7993663D1*
X2879333Y7987150D1*
X2881360Y7979967D1*
X2881750Y7951667D1*
X2881360Y3020033D1*
X2879333Y3012850D1*
X2875687Y3006337D1*
X2870620Y3000857D1*
X2864413Y2996710D1*
X2859803Y2994800D1*
X2481807Y2900223D1*
X2481750Y1320923D1*
X3718263Y2985523D1*
X3718250Y11793267D1*
X2799257Y11793250D1*
X2600710Y8269100D2*
Y11793163D1*
X2382173Y11793250D1*
X2431557Y8438307D1*
X2600653Y8269247D1*
D17*
X2475000Y18450000D3*
X2645000D3*
X1450000Y17075000D3*
X1280000D3*
X1450000Y16775000D3*
X1280000D3*
D20*
X1575000Y13125000D3*
Y13295000D3*
X1650000Y12650000D3*
Y12480000D3*
D21*
X3550000Y14000000D3*
X3270000D3*
D23*
X1275000Y13600000D3*
X1495000D3*
X1425000Y12725000D3*
X1205000D3*
D25*
X1625000Y16175000D3*
Y16048000D3*
Y15921000D3*
Y15794000D3*
Y15667000D3*
Y15540000D3*
Y15413000D3*
Y15286000D3*
D93*
X3123000Y14731000D3*
D25*
X3475000Y14905000D3*
Y15032000D3*
Y15159000D3*
Y15286000D3*
Y15413000D3*
Y15540000D3*
Y15667000D3*
D93*
X2234000Y14731000D3*
D25*
X1625000Y15159000D3*
Y15032000D3*
Y14905000D3*
D93*
X1980000Y14731000D3*
X2107000D3*
D25*
X1625000Y16302000D3*
Y16429000D3*
Y16556000D3*
D93*
X2361000Y14731000D3*
X2488000D3*
X2615000D3*
X2996000D3*
X2869000D3*
X2742000D3*
D25*
X3475000Y15794000D3*
Y15921000D3*
Y16048000D3*
Y16175000D3*
Y16302000D3*
Y16429000D3*
Y16556000D3*
D26*
X2580000Y15786000D3*
D94*
X2400000Y13400000D3*
D27*
X2527000D3*
X2654000D3*
D28*
X2975000Y14275000D3*
D29*
X2721000D3*
D30*
X3750000Y15925000D3*
D31*
Y16050000D3*
Y16175000D3*
D32*
X2029000Y17500000D3*
D33*
X1775000D3*
D18*
X1175000Y14725000D3*
Y14915000D3*
X3450000Y14575000D3*
Y14385000D3*
X3570000Y12765000D3*
Y12955000D3*
D19*
X2770000Y12925000D3*
X2960000D3*
D18*
X3750000Y14375000D3*
Y14565000D3*
D19*
X2650000Y17875000D3*
X2460000D3*
X1700000Y13575000D3*
X1890000D3*
D18*
X1800000Y13100000D3*
Y13290000D3*
D19*
X1775000Y12225000D3*
X1965000D3*
D18*
X2050000Y12675000D3*
Y12485000D3*
D19*
X2500000Y12550000D3*
X2690000D3*
X3425000Y17625000D3*
X3235000D3*
D36*
X2125000Y13900000D3*
D37*
Y14350000D3*
X1475000D3*
Y13900000D3*
D36*
X3000000Y18500000D3*
D37*
Y18050000D3*
X3650000D3*
Y18500000D3*
D23*
X2475000Y18225000D3*
X2635000D3*
Y18095000D3*
X2475000D3*
D94*
X3125000Y13375000D3*
D27*
X3252000D3*
X3379000D3*
D39*
X1600000Y3925000D3*
X3350000D3*
M02*
