M48
METRIC,0000.00
T01C0.486
T02C0.5
T03C0.7
T04C0.9
T05C0.965
T06C1.0
%
T01
X+003050Y+015900
X+003275Y+015700
X+003250Y+015025
X+002525Y+015275
X+001875Y+015425
X+001350Y+015375
X+001775Y+014550
X+001200Y+014100
X+002100Y+013425
X+002500Y+012925
X+002325Y+012700
X+002225Y+012225
X+002700Y+012025
X+002850Y+011725
X+002850Y+011575
X+002850Y+011425
X+002850Y+011275
X+002850Y+011125
X+002850Y+010975
X+002850Y+010825
X+002850Y+010675
X+002850Y+010525
X+002850Y+010375
X+002850Y+010225
X+002850Y+010075
X+002850Y+009925
X+002850Y+009775
X+002850Y+009625
X+002850Y+009475
X+002850Y+009325
X+002850Y+009175
X+002850Y+009025
X+002850Y+008875
X+002850Y+008725
X+002850Y+008575
X+002850Y+008425
X+002850Y+008275
X+002850Y+008125
X+002580Y+007985
X+002550Y+008425
X+002550Y+008575
X+002550Y+008725
X+002550Y+008875
X+002550Y+009025
X+002550Y+009175
X+002550Y+009325
X+002550Y+009475
X+002550Y+009625
X+002550Y+009775
X+002550Y+009925
X+002550Y+010075
X+002550Y+010225
X+002550Y+010375
X+002550Y+010525
X+002550Y+010675
X+002550Y+010825
X+002550Y+010975
X+002550Y+011125
X+002550Y+011275
X+002550Y+011425
X+002550Y+011575
X+002550Y+011725
X+003195Y+012540
X+003585Y+012515
X+002125Y+015975
X+002225Y+016875
X+002750Y+017025
X+001575Y+018075
X+001325Y+017700
X+001425Y+018575
X+002650Y+018725
X+003390Y+005950
X+001605Y+005915
T02
X+003750Y+015925
X+003750Y+016050
X+003750Y+016175
X+002450Y+017650
T03
X+002400Y+013400
X+002527Y+013400
X+002654Y+013400
X+003125Y+013375
X+003252Y+013375
X+003379Y+013375
T04
X+002029Y+017500
X+001775Y+017500
T05
X+002975Y+014275
X+002721Y+014275
T06
X+002125Y+013900
X+002125Y+014350
X+001475Y+014350
X+001475Y+013900
X+003000Y+018050
X+003000Y+018500
X+003650Y+018500
X+003650Y+018050
T00
M30
